<svg width="20" height="20" viewBox="0 0 20 20" fill="none" xmlns="http://www.w3.org/2000/svg">
<path d="M10.2752 17.7834C9.36686 17.7834 8.45853 17.4417 7.76686 16.75C6.38353 15.3667 6.38353 13.125 7.76686 11.7417L9.83353 9.68338C10.0752 9.44172 10.4752 9.44172 10.7169 9.68338C10.9585 9.92505 10.9585 10.325 10.7169 10.5667L8.6502 12.625C7.75853 13.5167 7.75853 14.975 8.6502 15.8667C9.54186 16.7584 11.0002 16.7584 11.8919 15.8667L15.1335 12.625C16.1169 11.6417 16.6585 10.3334 16.6585 8.94171C16.6585 7.55005 16.1169 6.24172 15.1335 5.25838C13.1002 3.22505 9.80019 3.22505 7.76686 5.25838L4.23353 8.79172C3.40853 9.61672 2.9502 10.7167 2.9502 11.8834C2.9502 13.05 3.40853 14.15 4.23353 14.975C4.4752 15.2167 4.4752 15.6167 4.23353 15.8584C3.99186 16.1 3.59186 16.1 3.3502 15.8584C2.29186 14.7917 1.7002 13.3834 1.7002 11.8834C1.7002 10.3834 2.28353 8.96671 3.3502 7.90838L6.88353 4.37505C9.4002 1.85838 13.5002 1.85838 16.0169 4.37505C17.2335 5.59172 17.9085 7.21671 17.9085 8.94171C17.9085 10.6667 17.2335 12.2917 16.0169 13.5084L12.7752 16.75C12.0835 17.4417 11.1835 17.7834 10.2752 17.7834Z" fill="#292D32"/>
</svg>
