<svg width="49" height="55" viewBox="0 0 49 55" fill="none" xmlns="http://www.w3.org/2000/svg">
<path d="M24.4928 23.5556C23.4521 23.5556 22.5891 22.6926 22.5891 21.6519V13.1993C22.5891 12.1586 23.4521 11.2955 24.4928 11.2955C25.5335 11.2955 26.3966 12.1586 26.3966 13.1993V21.6519C26.3966 22.718 25.5335 23.5556 24.4928 23.5556Z" fill="#3366FF"/>
<path d="M24.5437 48.5073C17.9949 48.5073 11.4714 47.4666 5.2525 45.3852C2.94263 44.6237 1.19119 42.9738 0.42969 40.8923C-0.331806 38.8109 -0.0779746 36.4249 1.1658 34.3435L4.38947 28.9622C5.1002 27.7692 5.73478 25.5355 5.73478 24.1394V18.809C5.73478 8.42722 14.162 0 24.5437 0C34.9255 0 43.3527 8.42722 43.3527 18.809V24.1394C43.3527 25.5101 43.9873 27.7692 44.698 28.9622L47.9217 34.3435C49.1147 36.3234 49.3177 38.684 48.5309 40.8416C47.744 42.9992 46.0179 44.6491 43.835 45.3852C37.6161 47.492 31.0926 48.5073 24.5437 48.5073ZM24.5437 3.83286C16.2688 3.83286 9.54226 10.5594 9.54226 18.8343V24.1648C9.54226 26.2209 8.73 29.1907 7.6639 30.9421L4.44024 36.3488C3.78027 37.4402 3.62797 38.6079 4.00872 39.6232C4.38947 40.6385 5.2525 41.4 6.47089 41.8061C18.1472 45.6898 30.9911 45.6898 42.6673 41.8061C43.7588 41.4508 44.5965 40.6385 44.9772 39.5724C45.3833 38.5063 45.2564 37.3387 44.6726 36.3488L41.449 30.9675C40.3829 29.2161 39.5706 26.2462 39.5706 24.1902V18.8597C39.5452 10.5594 32.8187 3.83286 24.5437 3.83286Z" fill="#091A7A"/>
<path d="M24.4926 54.98C21.7766 54.98 19.1114 53.8631 17.1822 51.934C15.2531 50.0049 14.1363 47.3396 14.1363 44.6236H17.9437C17.9437 46.3497 18.6545 48.025 19.8729 49.2434C21.0913 50.4618 22.7666 51.1725 24.4926 51.1725C28.097 51.1725 31.0415 48.228 31.0415 44.6236H34.849C34.849 50.3348 30.2038 54.98 24.4926 54.98Z" fill="#3366FF"/>
</svg>
