<svg width="49" height="54" viewBox="0 0 49 54" fill="none" xmlns="http://www.w3.org/2000/svg">
<path d="M24.4749 18.8268C24.2238 18.8268 23.9979 18.7766 23.7469 18.6762C23.044 18.4001 22.5922 17.6972 22.5922 16.9441V1.88268C22.5922 0.853483 23.4457 0 24.4749 0C25.5041 0 26.3576 0.853483 26.3576 1.88268V12.4006L28.1649 10.5932C28.8929 9.86526 30.0978 9.86526 30.8258 10.5932C31.5538 11.3212 31.5538 12.5261 30.8258 13.2541L25.8053 18.2746C25.4539 18.626 24.9518 18.8268 24.4749 18.8268Z" fill="#3366FF"/>
<path d="M24.4748 18.8269C23.9979 18.8269 23.521 18.6512 23.1444 18.2747L18.1239 13.2542C17.396 12.5262 17.396 11.3213 18.1239 10.5933C18.8519 9.86535 20.0568 9.86535 20.7848 10.5933L25.8053 15.6138C26.5332 16.3418 26.5332 17.5467 25.8053 18.2747C25.4287 18.6512 24.9518 18.8269 24.4748 18.8269Z" fill="#3366FF"/>
<path d="M34.5158 53.9702H14.4339C0 53.9702 0 46.314 0 39.5363V37.0261C0 31.4282 0 25.1024 11.9237 25.1024C14.9108 25.1024 16.0154 25.8304 17.5717 26.9851C17.647 27.0604 17.7474 27.1106 17.8227 27.211L20.3832 29.9221C22.542 32.2064 26.458 32.2064 28.6168 29.9221L31.1772 27.211C31.2525 27.1357 31.3278 27.0604 31.4282 26.9851C32.9846 25.8053 34.0891 25.1024 37.0763 25.1024C49 25.1024 49 31.4282 49 37.0261V39.5363C48.9497 49.1255 44.105 53.9702 34.5158 53.9702ZM11.9237 28.8678C3.76537 28.8678 3.76537 31.4282 3.76537 37.0261V39.5363C3.76537 46.4144 3.76537 50.2049 14.4339 50.2049H34.5158C41.9964 50.2049 45.1844 47.0169 45.1844 39.5363V37.0261C45.1844 31.4282 45.1844 28.8678 37.0261 28.8678C35.2187 28.8678 34.8422 29.0937 33.7628 29.897L31.3278 32.4825C29.5205 34.3903 27.0855 35.4446 24.4749 35.4446C21.8642 35.4446 19.4293 34.3903 17.6219 32.4825L15.187 29.897C14.1076 29.0937 13.731 28.8678 11.9237 28.8678Z" fill="#3366FF"/>
<path d="M6.90317 28.8677C5.87397 28.8677 5.02049 28.0142 5.02049 26.985V16.944C5.02049 12.0742 5.02049 6.02449 14.2582 5.1459C15.2874 5.04549 16.2162 5.79857 16.3166 6.85287C16.417 7.88207 15.6639 8.81086 14.6096 8.91127C8.78585 9.43842 8.78585 11.798 8.78585 16.944V26.985C8.78585 28.0142 7.93237 28.8677 6.90317 28.8677Z" fill="#091A7A"/>
<path d="M42.0466 28.8679C41.0174 28.8679 40.164 28.0144 40.164 26.9852V16.9442C40.164 11.7982 40.164 9.43858 34.3402 8.88633C33.311 8.78592 32.5579 7.85713 32.6583 6.82793C32.7587 5.79873 33.6624 5.02055 34.7167 5.14606C43.9544 6.02465 43.9544 12.0743 43.9544 16.9442V26.9852C43.9293 28.0144 43.0758 28.8679 42.0466 28.8679Z" fill="#091A7A"/>
</svg>
