<svg width="21" height="22" viewBox="0 0 21 22" fill="none" xmlns="http://www.w3.org/2000/svg">
<path d="M11.7498 22H9.22977C8.52977 22 7.89977 21.6999 7.47977 21.1899C7.10977 20.7299 6.96976 20.14 7.09976 19.58L7.50977 17.77C7.58977 17.43 7.88976 17.1899 8.23976 17.1899H12.7398C13.0898 17.1899 13.3898 17.43 13.4698 17.77L13.8798 19.58C14.0098 20.18 13.8898 20.76 13.5198 21.22C13.1098 21.71 12.4698 22 11.7498 22ZM8.83977 18.67L8.55977 19.9C8.52977 20.05 8.58977 20.17 8.64977 20.24C8.77977 20.4 8.98977 20.49 9.22977 20.49H11.7498C12.0098 20.49 12.2298 20.41 12.3498 20.26C12.4298 20.16 12.4498 20.04 12.4198 19.89L12.1398 18.66H8.83977V18.67Z" fill="#292D32"/>
<path d="M12.74 18.67C12.53 18.67 12.33 18.59 12.18 18.42C11.91 18.11 11.93 17.64 12.24 17.36L13.97 15.8199C14.66 15.2099 14.63 15.06 14.12 14.42L11.07 10.55C10.9 10.34 10.7 10.22 10.49 10.22C10.28 10.22 10.08 10.34 9.91 10.55L6.86001 14.42C6.32001 15.11 6.33 15.26 6.99 15.8L8.74 17.36C9.05 17.63 9.08001 18.11 8.80001 18.42C8.52001 18.73 8.05 18.76 7.74 18.48L6.01 16.9399C4.75 15.9099 4.64 14.81 5.68 13.49L8.73 9.62C9.18 9.05 9.82 8.71997 10.49 8.71997C11.16 8.71997 11.8 9.05 12.25 9.62L15.3 13.49C16.33 14.79 16.23 15.8299 14.97 16.9399L13.24 18.48C13.09 18.61 12.91 18.67 12.74 18.67Z" fill="#292D32"/>
<path d="M10.4897 13.15C10.0797 13.15 9.73975 12.81 9.73975 12.4V9.87C9.73975 9.46 10.0797 9.12 10.4897 9.12C10.8997 9.12 11.2397 9.46 11.2397 9.87V12.4C11.2397 12.82 10.8997 13.15 10.4897 13.15Z" fill="#292D32"/>
<path d="M11 4.5H10C9.04 4.5 8.25 3.71 8.25 2.75V1.75C8.25 0.79 9.04 0 10 0H11C11.96 0 12.75 0.79 12.75 1.75V2.75C12.75 3.71 11.97 4.5 11 4.5ZM10 1.5C9.86 1.5 9.75 1.61 9.75 1.75V2.75C9.75 2.89 9.86 3 10 3H11C11.14 3 11.25 2.89 11.25 2.75V1.75C11.25 1.61 11.14 1.5 11 1.5H10Z" fill="#292D32"/>
<path d="M2.75 13.67H1.75C0.79 13.67 0 12.88 0 11.92V10.92C0 9.95998 0.79 9.16992 1.75 9.16992H2.75C3.71 9.16992 4.5 9.95998 4.5 10.92V11.92C4.5 12.88 3.71 13.67 2.75 13.67ZM1.75 10.6699C1.61 10.6699 1.5 10.78 1.5 10.92V11.92C1.5 12.06 1.61 12.17 1.75 12.17H2.75C2.89 12.17 3 12.06 3 11.92V10.92C3 10.78 2.89 10.6699 2.75 10.6699H1.75Z" fill="#292D32"/>
<path d="M19.21 13.67H18.21C17.25 13.67 16.46 12.88 16.46 11.92V10.92C16.46 9.95998 17.25 9.16992 18.21 9.16992H19.21C20.17 9.16992 20.96 9.95998 20.96 10.92V11.92C20.96 12.88 20.18 13.67 19.21 13.67ZM18.21 10.6699C18.07 10.6699 17.96 10.78 17.96 10.92V11.92C17.96 12.06 18.07 12.17 18.21 12.17H19.21C19.35 12.17 19.46 12.06 19.46 11.92V10.92C19.46 10.78 19.35 10.6699 19.21 10.6699H18.21Z" fill="#292D32"/>
<path d="M2.22998 10.6701C1.81998 10.6701 1.47998 10.3301 1.47998 9.92007C1.47998 5.65007 4.67998 2.06008 8.91998 1.56008C9.32998 1.52008 9.69998 1.81005 9.74998 2.22005C9.79998 2.63005 9.49998 3.00007 9.08998 3.05007C5.60998 3.46007 2.97998 6.41007 2.97998 9.92007C2.97998 10.3301 2.63998 10.6701 2.22998 10.6701Z" fill="#292D32"/>
<path d="M18.73 10.67C18.32 10.67 17.98 10.33 17.98 9.92001C17.98 6.43001 15.37 3.48002 11.91 3.06002C11.5 3.01002 11.21 2.64 11.26 2.23C11.31 1.82 11.68 1.52004 12.1 1.58004C16.31 2.09004 19.49 5.68002 19.49 9.93002C19.48 10.33 19.15 10.67 18.73 10.67Z" fill="#292D32"/>
</svg>
