<svg width="20" height="20" viewBox="0 0 20 20" fill="none" xmlns="http://www.w3.org/2000/svg">
<path d="M7.8916 12.7333C7.73327 12.7333 7.57493 12.6749 7.44993 12.5499C6.7666 11.8666 6.3916 10.9583 6.3916 9.99993C6.3916 8.00827 8.00827 6.3916 9.99993 6.3916C10.9583 6.3916 11.8666 6.7666 12.5499 7.44993C12.6666 7.5666 12.7333 7.72494 12.7333 7.8916C12.7333 8.05827 12.6666 8.2166 12.5499 8.33327L8.33327 12.5499C8.20827 12.6749 8.04994 12.7333 7.8916 12.7333ZM9.99993 7.6416C8.69993 7.6416 7.6416 8.69993 7.6416 9.99993C7.6416 10.4166 7.74993 10.8166 7.94993 11.1666L11.1666 7.94993C10.8166 7.74993 10.4166 7.6416 9.99993 7.6416Z" fill="#9CA3AF"/>
<path d="M4.66654 15.4251C4.52487 15.4251 4.37487 15.3751 4.2582 15.2751C3.36654 14.5167 2.56654 13.5834 1.8832 12.5001C0.99987 11.1251 0.99987 8.8834 1.8832 7.50006C3.91654 4.31673 6.87487 2.4834 9.99987 2.4834C11.8332 2.4834 13.6415 3.11673 15.2249 4.3084C15.4999 4.51673 15.5582 4.9084 15.3499 5.1834C15.1415 5.4584 14.7499 5.51673 14.4749 5.3084C13.1082 4.27506 11.5582 3.7334 9.99987 3.7334C7.3082 3.7334 4.7332 5.35007 2.9332 8.17507C2.3082 9.15007 2.3082 10.8501 2.9332 11.8251C3.5582 12.8001 4.27487 13.6417 5.06654 14.3251C5.32487 14.5501 5.3582 14.9417 5.1332 15.2084C5.01654 15.3501 4.84154 15.4251 4.66654 15.4251Z" fill="#9CA3AF"/>
<path d="M10.0001 17.5166C8.8918 17.5166 7.80847 17.2916 6.7668 16.8499C6.45013 16.7166 6.30013 16.3499 6.43347 16.0333C6.5668 15.7166 6.93347 15.5666 7.25013 15.6999C8.13347 16.0749 9.05847 16.2666 9.9918 16.2666C12.6835 16.2666 15.2585 14.6499 17.0585 11.8249C17.6835 10.8499 17.6835 9.14992 17.0585 8.17492C16.8001 7.76658 16.5168 7.37492 16.2168 7.00825C16.0001 6.74158 16.0418 6.34992 16.3085 6.12492C16.5751 5.90825 16.9668 5.94158 17.1918 6.21658C17.5168 6.61658 17.8335 7.04992 18.1168 7.49992C19.0001 8.87492 19.0001 11.1166 18.1168 12.4999C16.0835 15.6833 13.1251 17.5166 10.0001 17.5166Z" fill="#9CA3AF"/>
<path d="M10.5751 13.5584C10.2835 13.5584 10.0168 13.35 9.95848 13.05C9.89181 12.7084 10.1168 12.3834 10.4585 12.325C11.3751 12.1584 12.1418 11.3917 12.3085 10.475C12.3751 10.1334 12.7001 9.91671 13.0418 9.97504C13.3835 10.0417 13.6085 10.3667 13.5418 10.7084C13.2751 12.15 12.1251 13.2917 10.6918 13.5584C10.6501 13.55 10.6168 13.5584 10.5751 13.5584Z" fill="#9CA3AF"/>
<path d="M1.66686 18.9583C1.50853 18.9583 1.3502 18.8999 1.2252 18.7749C0.983529 18.5333 0.983529 18.1333 1.2252 17.8916L7.4502 11.6666C7.69186 11.4249 8.09186 11.4249 8.33353 11.6666C8.5752 11.9083 8.5752 12.3083 8.33353 12.5499L2.10853 18.7749C1.98353 18.8999 1.8252 18.9583 1.66686 18.9583Z" fill="#9CA3AF"/>
<path d="M12.1083 8.51662C11.9499 8.51662 11.7916 8.45829 11.6666 8.33329C11.4249 8.09162 11.4249 7.69162 11.6666 7.44995L17.8916 1.22495C18.1333 0.983285 18.5333 0.983285 18.7749 1.22495C19.0166 1.46662 19.0166 1.86662 18.7749 2.10828L12.5499 8.33329C12.4249 8.45829 12.2666 8.51662 12.1083 8.51662Z" fill="#9CA3AF"/>
</svg>
