<svg width="31" height="31" viewBox="0 0 31 31" fill="none" xmlns="http://www.w3.org/2000/svg">
<circle cx="15.5" cy="15.5" r="9.92844" transform="rotate(30 15.5 15.5)" fill="#105DFB"/>
<path fill-rule="evenodd" clip-rule="evenodd" d="M7.78308 15.9248L12.1147 8.42219L15.5831 10.4246C16.6971 11.0678 17.0788 12.4923 16.4356 13.6064C16.0269 14.3143 15.556 14.6271 14.4982 14.6162C15.202 15.6028 15.119 16.3591 14.6333 17.2004C13.9762 18.3385 12.4621 18.6262 11.324 17.9692L7.78308 15.9248ZM12.8654 10.5115L11.8238 12.3156L13.5415 13.3073C13.5415 13.3073 14.3764 13.7893 14.8972 12.8873C15.418 11.9852 14.5831 11.5032 14.5831 11.5032L12.8654 10.5115ZM9.98433 15.5015L11.109 13.5535L12.9515 14.6173C13.249 14.789 13.7841 15.3027 13.2522 16.2239C12.8578 16.9072 12.1376 16.7362 11.8268 16.5653L9.98433 15.5015Z" fill="white"/>
<path fill-rule="evenodd" clip-rule="evenodd" d="M19.7492 15.5863C18.6936 14.9768 16.6918 14.8318 15.5283 16.847C14.8198 18.0741 14.5822 20.037 16.5974 21.2005C18.2096 22.1313 19.635 21.3762 20.1462 20.8823L18.63 20.0069C18.3981 20.2313 17.9289 20.357 17.2955 19.9914C16.3743 19.4595 16.5023 18.4842 16.6815 18.0631L20.5008 20.2681L20.7391 19.8555C21.9025 17.8403 20.8048 16.1957 19.7492 15.5863ZM19.0844 16.7378C18.2246 16.2414 17.4972 16.7683 17.2411 17.0938L19.5442 18.4235C19.7492 18.0685 19.9442 17.2342 19.0844 16.7378Z" fill="white"/>
<path d="M18.8638 12.8871L18.3263 13.8179L21.9441 15.9066L22.4816 14.9758L18.8638 12.8871Z" fill="white"/>
</svg>
