<svg width="20" height="20" viewBox="0 0 20 20" fill="none" xmlns="http://www.w3.org/2000/svg">
<path d="M1.78938 8.70338L1.78935 8.70339L2.41408 15.3755C2.5018 16.2061 2.70878 16.9444 3.26541 17.4866C3.81942 18.0263 4.81113 18.4583 6.66653 18.4583H13.3332C15.1886 18.4583 16.1801 18.0263 16.734 17.4859C17.2907 16.9427 17.4979 16.2024 17.5856 15.3673L18.2104 8.7116L18.2108 8.70672C18.3013 7.83557 18.2975 6.74454 17.5864 5.95094L1.78938 8.70338ZM1.78938 8.70338L1.78881 8.6979M1.78938 8.70338L1.78881 8.6979M1.78881 8.6979C1.69851 7.83596 1.70217 6.74455 2.41347 5.95082M1.78881 8.6979L2.41347 5.95082M2.41347 5.95082C3.02349 5.27328 4.08952 4.88333 5.8332 4.88333H14.1665C15.9176 4.88333 16.9842 5.28117 17.5863 5.95091L2.41347 5.95082ZM2.66037 15.3466L2.66033 15.3466L2.66107 15.3535C2.73295 16.0216 2.86905 16.7958 3.50182 17.3686C4.12546 17.9331 5.12444 18.2083 6.66653 18.2083H13.3332C14.8715 18.2083 15.8703 17.933 16.4948 17.3675C17.1283 16.794 17.2667 16.0183 17.3387 15.3448L17.3387 15.3448L17.3393 15.3384L17.9638 8.68505C17.9639 8.68421 17.964 8.68336 17.9641 8.68251C18.0762 7.60183 17.9587 6.72686 17.4046 6.11527C16.7602 5.39576 15.5972 5.125 14.1665 5.125H5.8332C4.4025 5.125 3.23946 5.39578 2.595 6.11538C2.04134 6.72666 1.92348 7.60113 2.03563 8.67433L2.66037 15.3466Z" fill="#1F2937" stroke="#1F2937"/>
<path d="M13.3332 5.12499C13.303 5.12499 13.2717 5.11271 13.2461 5.08706C13.2205 5.06142 13.2082 5.03014 13.2082 4.99999V4.33332L13.2082 4.31047C13.2082 3.95813 13.2082 3.61929 13.1726 3.32786C13.1357 3.02596 13.0546 2.71282 12.8462 2.44744C12.6318 2.17446 12.3313 2.01249 11.974 1.91852C11.6253 1.82679 11.1924 1.79166 10.6665 1.79166H9.33317C8.80731 1.79166 8.37436 1.82679 8.02564 1.91852C7.66841 2.01249 7.36782 2.17446 7.15347 2.44744C6.94507 2.71282 6.86401 3.02596 6.8271 3.32786C6.79147 3.61929 6.79149 3.95813 6.7915 4.31047L6.7915 4.33332V4.99999C6.7915 5.03014 6.77922 5.06142 6.75358 5.08706C6.72793 5.11271 6.69665 5.12499 6.6665 5.12499C6.63636 5.12499 6.60508 5.11271 6.57943 5.08706C6.55379 5.06142 6.5415 5.03014 6.5415 4.99999V4.33332C6.5415 3.56515 6.55579 2.90181 6.87346 2.40801C7.15475 1.97076 7.77224 1.54166 9.33317 1.54166H10.6665C12.2274 1.54166 12.8449 1.97076 13.1262 2.40801C13.4439 2.90181 13.4582 3.56515 13.4582 4.33332V4.99999C13.4582 5.03014 13.4459 5.06142 13.4202 5.08706C13.3946 5.11271 13.3633 5.12499 13.3332 5.12499Z" fill="#1F2937" stroke="#1F2937"/>
<path d="M10.0002 13.9583C7.7085 13.9583 7.7085 12.5417 7.7085 11.6917V10.8333C7.7085 9.65833 7.99183 9.375 9.16683 9.375H10.8335C12.0085 9.375 12.2918 9.65833 12.2918 10.8333V11.6667C12.2918 12.5333 12.2918 13.9583 10.0002 13.9583ZM8.9585 10.625C8.9585 10.6917 8.9585 10.7667 8.9585 10.8333V11.6917C8.9585 12.55 8.9585 12.7083 10.0002 12.7083C11.0418 12.7083 11.0418 12.575 11.0418 11.6833V10.8333C11.0418 10.7667 11.0418 10.6917 11.0418 10.625C10.9752 10.625 10.9002 10.625 10.8335 10.625H9.16683C9.10016 10.625 9.02516 10.625 8.9585 10.625Z" fill="#1F2937"/>
<path d="M11.6667 12.3083C11.3584 12.3083 11.0834 12.075 11.0501 11.7583C11.0084 11.4167 11.2501 11.1 11.5917 11.0583C13.7917 10.7833 15.9001 9.95001 17.6751 8.65834C17.9501 8.45001 18.3417 8.51667 18.5501 8.80001C18.7501 9.07501 18.6917 9.46667 18.4084 9.67501C16.4584 11.0917 14.1584 12 11.7417 12.3083C11.7167 12.3083 11.6917 12.3083 11.6667 12.3083Z" fill="#1F2937"/>
<path d="M8.33345 12.3167C8.30845 12.3167 8.28345 12.3167 8.25845 12.3167C5.97511 12.0583 3.75011 11.225 1.82511 9.90833C1.54178 9.71667 1.46678 9.325 1.65845 9.04167C1.85011 8.75833 2.24178 8.68333 2.52511 8.875C4.28345 10.075 6.30845 10.8333 8.39178 11.075C8.73345 11.1167 8.98345 11.425 8.94178 11.7667C8.91678 12.0833 8.65011 12.3167 8.33345 12.3167Z" fill="#1F2937"/>
</svg>
