<svg width="16" height="16" viewBox="0 0 16 16" fill="none" xmlns="http://www.w3.org/2000/svg">
<path d="M7.99992 15.1667C4.04659 15.1667 0.833252 11.9533 0.833252 8.00001C0.833252 4.04668 4.04659 0.833344 7.99992 0.833344C11.9533 0.833344 15.1666 4.04668 15.1666 8.00001C15.1666 11.9533 11.9533 15.1667 7.99992 15.1667ZM7.99992 1.83334C4.59992 1.83334 1.83325 4.60001 1.83325 8.00001C1.83325 11.4 4.59992 14.1667 7.99992 14.1667C11.3999 14.1667 14.1666 11.4 14.1666 8.00001C14.1666 4.60001 11.3999 1.83334 7.99992 1.83334Z" fill="#111827"/>
<path d="M10.4733 10.62C10.3867 10.62 10.3 10.6 10.22 10.5467L8.15334 9.31332C7.64001 9.00665 7.26001 8.33332 7.26001 7.73999V5.00665C7.26001 4.73332 7.48668 4.50665 7.76001 4.50665C8.03334 4.50665 8.26001 4.73332 8.26001 5.00665V7.73999C8.26001 7.97999 8.46001 8.33332 8.66668 8.45332L10.7333 9.68665C10.9733 9.82665 11.0467 10.1333 10.9067 10.3733C10.8067 10.5333 10.64 10.62 10.4733 10.62Z" fill="#111827"/>
</svg>
