<svg width="20" height="20" viewBox="0 0 20 20" fill="none" xmlns="http://www.w3.org/2000/svg">
<path d="M12.7167 18.5417H7.28332C3.19165 18.5417 1.44165 16.7917 1.44165 12.7001V12.5917C1.44165 8.89173 2.89998 7.1084 6.16665 6.80006C6.49998 6.77506 6.81665 7.02506 6.84998 7.36673C6.88332 7.7084 6.63332 8.01673 6.28332 8.05006C3.66665 8.29173 2.69165 9.52506 2.69165 12.6001V12.7084C2.69165 16.1001 3.89165 17.3001 7.28332 17.3001H12.7167C16.1083 17.3001 17.3083 16.1001 17.3083 12.7084V12.6001C17.3083 9.5084 16.3166 8.27506 13.65 8.05006C13.3083 8.01673 13.05 7.71673 13.0833 7.37506C13.1166 7.0334 13.4083 6.77506 13.7583 6.8084C17.075 7.09173 18.5583 8.8834 18.5583 12.6084V12.7167C18.5583 16.7917 16.8083 18.5417 12.7167 18.5417Z" fill="#111827"/>
<path d="M10 13.1249C9.65833 13.1249 9.375 12.8416 9.375 12.4999V3.0166C9.375 2.67493 9.65833 2.3916 10 2.3916C10.3417 2.3916 10.625 2.67493 10.625 3.0166V12.4999C10.625 12.8416 10.3417 13.1249 10 13.1249Z" fill="#111827"/>
<path d="M12.7917 5.50003C12.6334 5.50003 12.475 5.4417 12.35 5.3167L10 2.9667L7.65003 5.3167C7.40837 5.55837 7.00837 5.55837 6.7667 5.3167C6.52503 5.07503 6.52503 4.67503 6.7667 4.43337L9.55837 1.6417C9.80003 1.40003 10.2 1.40003 10.4417 1.6417L13.2334 4.43337C13.475 4.67503 13.475 5.07503 13.2334 5.3167C13.1167 5.4417 12.95 5.50003 12.7917 5.50003Z" fill="#111827"/>
</svg>
