<svg width="20" height="20" viewBox="0 0 20 20" fill="none" xmlns="http://www.w3.org/2000/svg">
<path d="M13.3333 18.9583H6.66667C1.875 18.9583 1.875 16.4167 1.875 14.1667V13.3333C1.875 11.475 1.875 9.375 5.83333 9.375C6.825 9.375 7.19167 9.61667 7.70833 10C7.73333 10.025 7.76667 10.0417 7.79167 10.075L8.64167 10.975C9.35833 11.7333 10.6583 11.7333 11.375 10.975L12.225 10.075C12.25 10.05 12.275 10.025 12.3083 10C12.825 9.60833 13.1917 9.375 14.1833 9.375C18.1417 9.375 18.1417 11.475 18.1417 13.3333V14.1667C18.125 17.35 16.5167 18.9583 13.3333 18.9583ZM5.83333 10.625C3.125 10.625 3.125 11.475 3.125 13.3333V14.1667C3.125 16.45 3.125 17.7083 6.66667 17.7083H13.3333C15.8167 17.7083 16.875 16.65 16.875 14.1667V13.3333C16.875 11.475 16.875 10.625 14.1667 10.625C13.5667 10.625 13.4417 10.7 13.0833 10.9667L12.275 11.825C11.675 12.4583 10.8667 12.8083 10 12.8083C9.13333 12.8083 8.325 12.4583 7.725 11.825L6.91667 10.9667C6.55833 10.7 6.43333 10.625 5.83333 10.625Z" fill="#111827"/>
<path d="M15.8334 10.6251C15.4917 10.6251 15.2084 10.3417 15.2084 10.0001V5.00008C15.2084 3.14175 15.2084 2.29175 12.5001 2.29175H7.50008C4.79175 2.29175 4.79175 3.14175 4.79175 5.00008V10.0001C4.79175 10.3417 4.50841 10.6251 4.16675 10.6251C3.82508 10.6251 3.54175 10.3417 3.54175 10.0001V5.00008C3.54175 3.14175 3.54175 1.04175 7.50008 1.04175H12.5001C16.4584 1.04175 16.4584 3.14175 16.4584 5.00008V10.0001C16.4584 10.3417 16.1751 10.6251 15.8334 10.6251Z" fill="#111827"/>
<path d="M11.5667 8.31665H8.79175C8.45008 8.31665 8.16675 8.03332 8.16675 7.69165C8.16675 7.34998 8.45008 7.06665 8.79175 7.06665H11.5667C11.9084 7.06665 12.1917 7.34998 12.1917 7.69165C12.1917 8.03332 11.9167 8.31665 11.5667 8.31665Z" fill="#111827"/>
<path d="M12.2668 5.81665H8.1001C7.75843 5.81665 7.4751 5.53332 7.4751 5.19165C7.4751 4.84998 7.75843 4.56665 8.1001 4.56665H12.2668C12.6084 4.56665 12.8918 4.84998 12.8918 5.19165C12.8918 5.53332 12.6168 5.81665 12.2668 5.81665Z" fill="#111827"/>
</svg>
