<svg width="28" height="28" viewBox="0 0 28 28" fill="none" xmlns="http://www.w3.org/2000/svg">
<path d="M13.9997 2.3335C7.57134 2.3335 2.33301 7.57183 2.33301 14.0002C2.33301 20.4285 7.57134 25.6668 13.9997 25.6668C20.428 25.6668 25.6663 20.4285 25.6663 14.0002C25.6663 7.57183 20.428 2.3335 13.9997 2.3335ZM19.5763 11.3168L12.9613 17.9318C12.798 18.0952 12.5763 18.1885 12.343 18.1885C12.1097 18.1885 11.888 18.0952 11.7247 17.9318L8.42301 14.6302C8.08467 14.2918 8.08467 13.7318 8.42301 13.3935C8.76134 13.0552 9.32134 13.0552 9.65967 13.3935L12.343 16.0768L18.3397 10.0802C18.678 9.74183 19.238 9.74183 19.5763 10.0802C19.9147 10.4185 19.9147 10.9668 19.5763 11.3168Z" fill="#3366FF"/>
</svg>
