<svg width="20" height="20" viewBox="0 0 20 20" fill="none" xmlns="http://www.w3.org/2000/svg">
<path d="M3.29495 14.6374L3.29498 14.6374L3.29297 14.6321C3.11098 14.1489 3.16525 13.6003 3.4778 13.0839L3.4784 13.0829L4.43674 11.4912L4.43713 11.4906C4.56989 11.2693 4.68033 10.971 4.75712 10.6921C4.83399 10.4129 4.89172 10.1001 4.89172 9.84165V7.43332C4.89172 4.60946 7.19286 2.30832 10.0167 2.30832C12.8406 2.30832 15.1417 4.60946 15.1417 7.43332V9.84165C15.1417 10.0963 15.1996 10.4091 15.276 10.689C15.3526 10.9694 15.4625 11.2703 15.5935 11.4942L15.5935 11.4943L15.5963 11.4989L16.5458 13.0814C16.5458 13.0815 16.5459 13.0816 16.546 13.0817C16.8263 13.5513 16.879 14.1186 16.689 14.636C16.5007 15.1491 16.0922 15.5388 15.5771 15.7084L15.5771 15.7084L15.574 15.7094C13.7936 16.3082 11.9059 16.6083 10.0167 16.6083C8.12844 16.6083 6.24128 16.3085 4.45277 15.71C3.87753 15.5108 3.47009 15.1191 3.29495 14.6374ZM3.6967 13.2087L3.6967 13.2087L3.69529 13.2111C3.45868 13.609 3.35569 14.0943 3.53157 14.5498C3.69722 15.0095 4.08776 15.3138 4.53015 15.4648L4.53293 15.4658C8.11918 16.6669 11.9222 16.6669 15.5085 15.4659C15.952 15.3179 16.3012 14.9818 16.462 14.5365C16.6188 14.1023 16.5851 13.619 16.3363 13.2081C16.3362 13.2079 16.3361 13.2077 16.336 13.2075L15.3802 11.62C15.1084 11.1534 14.8917 10.3508 14.8917 9.83332V7.43332C14.8917 4.74051 12.7095 2.55832 10.0167 2.55832C7.33287 2.55832 5.14172 4.73989 5.14172 7.43332V9.84165C5.14172 10.3578 4.91741 11.1689 4.65353 11.6196L3.6967 13.2087Z" fill="#3366FF" stroke="#3366FF"/>
<path d="M11.5292 2.77758L11.5292 2.77756L11.5248 2.77634C11.2655 2.7048 11.0122 2.65034 10.7651 2.61374L10.7651 2.61365L10.756 2.61247C9.98319 2.51246 9.22891 2.56613 8.51541 2.77925L8.51538 2.77915L8.50551 2.78232C8.46758 2.79451 8.42013 2.78383 8.38761 2.74788C8.35348 2.71015 8.34665 2.66267 8.36322 2.62199L8.36327 2.62201L8.36593 2.6152C8.63297 1.93131 9.28193 1.48334 10.0252 1.48334C10.7692 1.48334 11.4148 1.92313 11.6822 2.60953C11.7031 2.66828 11.6886 2.71675 11.6656 2.74459C11.6421 2.76757 11.6046 2.78334 11.5668 2.78334C11.5568 2.78334 11.5447 2.78199 11.5292 2.77758Z" fill="#3366FF" stroke="#3366FF"/>
<path d="M8.16182 17.7381C7.79115 17.3674 7.54061 16.8921 7.4405 16.3833H7.69573C7.79213 16.8255 8.01431 17.2381 8.33805 17.5619C8.78158 18.0054 9.392 18.2583 10.0166 18.2583C11.1546 18.2583 12.1084 17.4536 12.3386 16.3833H12.594C12.3602 17.5934 11.2945 18.5083 10.0166 18.5083C9.32501 18.5083 8.65195 18.2282 8.16182 17.7381Z" fill="#292D32" stroke="#3366FF"/>
</svg>
