<svg width="54" height="54" viewBox="0 0 54 54" fill="none" xmlns="http://www.w3.org/2000/svg">
<path d="M35.3135 34.5851C33.8567 34.5851 32.2744 34.1079 30.6921 33.1284L27.3767 31.1191C27.226 31.0186 26.774 31.0186 26.6233 31.1191L23.3079 33.1284C20.5953 34.7861 17.933 35.0372 15.7981 33.8316C13.7135 32.6512 12.5581 30.2902 12.5581 27.2009V9.49396C12.5581 3.36558 15.8986 0 21.9767 0H32.0233C38.1014 0 41.4419 3.36558 41.4419 9.49396V27.2009C41.4419 30.3154 40.2865 32.6763 38.2019 33.8316C37.3228 34.334 36.3433 34.5851 35.3135 34.5851ZM27 27.2763C27.8288 27.2763 28.6577 27.4772 29.3358 27.8791L32.6512 29.8884C34.133 30.7926 35.4893 31.0186 36.3433 30.5414C37.1721 30.0642 37.6493 28.8335 37.6493 27.1758V9.49396C37.6493 5.47535 35.9665 3.76744 31.9981 3.76744H21.9516C17.9833 3.76744 16.3005 5.47535 16.3005 9.49396V27.2009C16.3005 28.8586 16.7777 30.0893 17.6065 30.5665C18.4605 31.0437 19.8167 30.8177 21.2986 29.9135L24.614 27.9042C25.3423 27.4772 26.1712 27.2763 27 27.2763Z" fill="#3366FF"/>
<path d="M34.5349 54H19.4651C5.82698 54 0 48.1228 0 34.3591V26.7489C0 15.0447 4.21954 9.11722 13.6633 7.5349C14.6679 7.35908 15.6474 8.06234 15.8233 9.09211C15.9991 10.1219 15.2958 11.0763 14.266 11.2521C6.70605 12.5079 3.74233 16.853 3.74233 26.7489V34.3591C3.74233 45.9377 7.98698 50.2326 19.44 50.2326H34.5098C45.9628 50.2326 50.2074 45.9377 50.2074 34.3591V26.7489C50.2074 16.7023 47.1433 12.3572 39.2567 11.1768C38.227 11.0261 37.5237 10.0716 37.6744 9.04188C37.8251 8.01211 38.7795 7.30885 39.8093 7.45955C49.6047 8.91629 53.9749 14.8437 53.9749 26.7489V34.3591C54 48.1228 48.173 54 34.5349 54Z" fill="#091A7A"/>
</svg>
