<svg width="26" height="27" viewBox="0 0 26 27" fill="none" xmlns="http://www.w3.org/2000/svg">
<path d="M24.3 11.0565H20.3985C17.199 11.0565 14.5935 8.451 14.5935 5.2515V1.35C14.5935 0.6075 13.986 0 13.2435 0H7.5195C3.3615 0 0 2.7 0 7.5195V19.4805C0 24.3 3.3615 27 7.5195 27H18.1305C22.2885 27 25.65 24.3 25.65 19.4805V12.4065C25.65 11.664 25.0425 11.0565 24.3 11.0565ZM12.1905 15.5655C11.988 15.768 11.7315 15.8625 11.475 15.8625C11.2185 15.8625 10.962 15.768 10.7595 15.5655L9.7875 14.5935V20.25C9.7875 20.8035 9.3285 21.2625 8.775 21.2625C8.2215 21.2625 7.7625 20.8035 7.7625 20.25V14.5935L6.7905 15.5655C6.399 15.957 5.751 15.957 5.3595 15.5655C4.968 15.174 4.968 14.526 5.3595 14.1345L8.0595 11.4345C8.154 11.3535 8.2485 11.286 8.3565 11.232C8.3835 11.2185 8.424 11.205 8.451 11.1915C8.532 11.1645 8.613 11.151 8.7075 11.1375C8.748 11.1375 8.775 11.1375 8.8155 11.1375C8.9235 11.1375 9.0315 11.1645 9.1395 11.205C9.153 11.205 9.153 11.205 9.1665 11.205C9.2745 11.2455 9.3825 11.3265 9.4635 11.4075C9.477 11.421 9.4905 11.421 9.4905 11.4345L12.1905 14.1345C12.582 14.526 12.582 15.174 12.1905 15.5655Z" fill="#3366FF"/>
<path d="M20.1553 9.19352C21.4378 9.20702 23.2198 9.20701 24.7453 9.20701C25.5148 9.20701 25.9198 8.30251 25.3798 7.76251C23.4358 5.80501 19.9528 2.28151 17.9547 0.283511C17.4012 -0.269989 16.4427 0.108011 16.4427 0.877512V5.58901C16.4427 7.56001 18.1167 9.19352 20.1553 9.19352Z" fill="#3366FF"/>
</svg>
