<svg width="20" height="20" viewBox="0 0 20 20" fill="none" xmlns="http://www.w3.org/2000/svg">
<path d="M10.0002 14.9C9.79187 14.9 9.57521 14.825 9.40854 14.675L7.25854 12.7917C6.45021 12.0833 6.34187 10.8667 7.01687 10.025C7.70021 9.175 8.91687 9.01667 9.79187 9.675L10.0002 9.83333L10.2169 9.66667C11.0919 9.00833 12.3085 9.16667 12.9919 10.0167C13.6669 10.8583 13.5585 12.075 12.7502 12.7833L10.6002 14.6667C10.4252 14.825 10.2085 14.9 10.0002 14.9ZM8.07521 11.85L10.0002 13.5333L11.9252 11.85C12.2335 11.5833 12.2752 11.125 12.0169 10.8083C11.7585 10.4833 11.3002 10.425 10.9669 10.675L10.3752 11.1167C10.1502 11.2833 9.85021 11.2833 9.62521 11.1167L9.03354 10.675C8.70854 10.425 8.24187 10.4833 7.98354 10.8083C7.73354 11.125 7.77521 11.5833 8.07521 11.85Z" fill="#3366FF"/>
<path d="M14.1665 18.9583H5.83317C2.15817 18.9583 1.0415 17.8417 1.0415 14.1667V5.83333C1.0415 2.15833 2.15817 1.04166 5.83317 1.04166H7.08317C8.5415 1.04166 8.99984 1.51666 9.58317 2.29166L10.8332 3.95833C11.1082 4.325 11.1498 4.375 11.6665 4.375H14.1665C17.8415 4.375 18.9582 5.49166 18.9582 9.16666V14.1667C18.9582 17.8417 17.8415 18.9583 14.1665 18.9583ZM5.83317 2.29166C2.84984 2.29166 2.2915 2.85833 2.2915 5.83333V14.1667C2.2915 17.1417 2.84984 17.7083 5.83317 17.7083H14.1665C17.1498 17.7083 17.7082 17.1417 17.7082 14.1667V9.16666C17.7082 6.19166 17.1498 5.625 14.1665 5.625H11.6665C10.5998 5.625 10.2498 5.25833 9.83317 4.70833L8.58317 3.04166C8.14984 2.46666 8.0165 2.29166 7.08317 2.29166H5.83317Z" fill="#3366FF"/>
</svg>
