<svg width="57" height="52" viewBox="0 0 57 52" fill="none" xmlns="http://www.w3.org/2000/svg">
<path d="M39.6987 51.9998C38.8417 51.9998 38.0099 51.7478 37.279 51.2689L26.5412 44.1104H21.7773C21.1976 44.1104 20.643 43.8331 20.2901 43.3794C19.9372 42.9005 19.8113 42.2955 19.9625 41.741C20.1137 41.136 20.1893 40.5311 20.1893 39.8758C20.1893 37.8593 19.4332 35.9185 18.0721 34.4061C16.5345 32.6669 14.3416 31.6839 11.9974 31.6839C9.7541 31.6839 7.66196 32.566 6.1244 34.154C5.64549 34.6581 4.91454 34.8598 4.25919 34.6581C3.60384 34.4565 3.07452 33.9272 2.92328 33.2466C2.67122 32.1375 2.54521 30.9277 2.54521 29.617V14.4934C2.54521 5.82257 8.36777 0 17.0386 0H42.2445C50.9154 0 56.7379 5.82257 56.7379 14.4934V29.617C56.7379 33.8263 55.3516 37.4559 52.705 40.1025C50.4868 42.3207 47.5378 43.6567 44.135 44.0096V47.5888C44.135 49.2272 43.2275 50.7143 41.7908 51.4957C41.1102 51.8233 40.4045 51.9998 39.6987 51.9998ZM23.945 40.3042H27.0957C27.4738 40.3042 27.8267 40.4051 28.1544 40.6319L39.371 48.1182C39.6231 48.2946 39.8751 48.2189 40.0012 48.1432C40.1272 48.0676 40.3541 47.9164 40.3541 47.5635V42.1947C40.3541 41.1612 41.2111 40.3042 42.2445 40.3042C45.4457 40.3042 48.1427 39.2961 50.0331 37.4056C51.9488 35.49 52.957 32.7929 52.957 29.5917V14.4682C52.957 7.96504 48.7477 3.75566 42.2445 3.75566H17.0386C10.5355 3.75566 6.32609 7.96504 6.32609 14.4682V29.2893C8.0401 28.3566 9.98095 27.8777 11.9974 27.8777C15.4254 27.8777 18.677 29.3397 20.8951 31.8603C22.8612 34.0532 23.9702 36.9015 23.9702 39.8505C23.945 40.0018 23.945 40.153 23.945 40.3042Z" fill="#3366FF"/>
<path d="M11.9728 51.8238C8.99851 51.8238 6.17542 50.7147 3.9825 48.7235C3.10029 47.9673 2.31893 47.0346 1.71398 46.0012C0.604923 44.1864 0 42.0439 0 39.8509C0 36.7002 1.20987 33.7511 3.37758 31.5078C5.64612 29.1636 8.69604 27.8781 11.9728 27.8781C15.4008 27.8781 18.6524 29.3401 20.8705 31.8607C22.8366 34.0536 23.9456 36.9019 23.9456 39.8509C23.9456 40.8088 23.8196 41.7666 23.5675 42.674C23.3155 43.8083 22.8365 44.993 22.1812 46.0264C20.0891 49.6057 16.157 51.8238 11.9728 51.8238ZM11.9728 31.659C9.72948 31.659 7.63743 32.5412 6.09987 34.1292C4.61272 35.6667 3.78089 37.6832 3.78089 39.8509C3.78089 41.3381 4.18418 42.8 4.96557 44.0603C5.36886 44.7661 5.89815 45.3962 6.50309 45.9255C8.01545 47.3118 9.95634 48.0681 11.9728 48.0681C14.8715 48.0681 17.4929 46.5809 18.9801 44.1108C19.4338 43.405 19.7362 42.6237 19.9127 41.8171C20.0891 41.1617 20.1647 40.5315 20.1647 39.8762C20.1647 37.8597 19.4086 35.9189 18.0474 34.4065C16.5351 32.6421 14.317 31.659 11.9728 31.659Z" fill="#091A7A"/>
<path d="M14.6699 44.3625C14.191 44.3625 13.7121 44.1861 13.334 43.808L8.01548 38.4896C7.28451 37.7587 7.28451 36.5488 8.01548 35.8178C8.74645 35.0868 9.95633 35.0868 10.6873 35.8178L16.0058 41.1362C16.7368 41.8672 16.7368 43.0771 16.0058 43.808C15.6277 44.1861 15.1488 44.3625 14.6699 44.3625Z" fill="#3366FF"/>
<path d="M9.27607 44.4385C8.79716 44.4385 8.31825 44.2619 7.94016 43.8838C7.20919 43.1529 7.20919 41.943 7.94016 41.212L13.2586 35.8936C13.9896 35.1626 15.1995 35.1626 15.9305 35.8936C16.6614 36.6246 16.6614 37.8345 15.9305 38.5654L10.612 43.8838C10.2339 44.2619 9.75498 44.4385 9.27607 44.4385Z" fill="#292D32"/>
<path d="M38.439 24.0972H20.7949C19.7614 24.0972 18.9044 23.2402 18.9044 22.2068C18.9044 21.1734 19.7614 20.3164 20.7949 20.3164H38.439C39.4725 20.3164 40.3295 21.1734 40.3295 22.2068C40.3295 23.2402 39.4725 24.0972 38.439 24.0972Z" fill="#292D32"/>
</svg>
