<svg width="20" height="20" viewBox="0 0 20 20" fill="none" xmlns="http://www.w3.org/2000/svg">
<path d="M11.1668 14.5167H9.07513C7.70846 14.5167 6.60013 13.3667 6.60013 11.95C6.60013 11.6083 6.88346 11.325 7.22513 11.325C7.5668 11.325 7.85013 11.6083 7.85013 11.95C7.85013 12.675 8.40013 13.2667 9.07513 13.2667H11.1668C11.7085 13.2667 12.1585 12.7833 12.1585 12.2C12.1585 11.475 11.9001 11.3333 11.4751 11.1833L8.1168 10C7.4668 9.775 6.5918 9.29167 6.5918 7.8C6.5918 6.51667 7.60013 5.48334 8.83346 5.48334H10.9251C12.2918 5.48334 13.4001 6.63334 13.4001 8.05C13.4001 8.39167 13.1168 8.675 12.7751 8.675C12.4335 8.675 12.1501 8.39167 12.1501 8.05C12.1501 7.325 11.6001 6.73334 10.9251 6.73334H8.83346C8.2918 6.73334 7.8418 7.21667 7.8418 7.8C7.8418 8.525 8.10013 8.66667 8.52513 8.81667L11.8835 10C12.5335 10.225 13.4085 10.7083 13.4085 12.2C13.4001 13.475 12.4001 14.5167 11.1668 14.5167Z" fill="#292D32"/>
<path d="M10 15.625C9.65833 15.625 9.375 15.3417 9.375 15V5C9.375 4.65833 9.65833 4.375 10 4.375C10.3417 4.375 10.625 4.65833 10.625 5V15C10.625 15.3417 10.3417 15.625 10 15.625Z" fill="#292D32"/>
<path d="M9.99984 18.9583C5.05817 18.9583 1.0415 14.9417 1.0415 10C1.0415 5.05834 5.05817 1.04167 9.99984 1.04167C14.9415 1.04167 18.9582 5.05834 18.9582 10C18.9582 14.9417 14.9415 18.9583 9.99984 18.9583ZM9.99984 2.29167C5.74984 2.29167 2.2915 5.75001 2.2915 10C2.2915 14.25 5.74984 17.7083 9.99984 17.7083C14.2498 17.7083 17.7082 14.25 17.7082 10C17.7082 5.75001 14.2498 2.29167 9.99984 2.29167Z" fill="#292D32"/>
</svg>
