<svg width="36" height="36" viewBox="0 0 36 36" fill="none" xmlns="http://www.w3.org/2000/svg">
<path d="M6.62445 10.7677C7.42334 7.78621 7.82278 6.29547 8.70814 5.31217C9.48693 4.44724 10.5196 3.85106 11.658 3.60907C12.9522 3.33397 14.443 3.73341 17.4245 4.5323L25.2323 6.62441C28.2138 7.4233 29.7046 7.82274 30.6879 8.70811C31.5528 9.4869 32.149 10.5195 32.391 11.658C32.6661 12.9522 32.2666 14.4429 31.4677 17.4244L29.3756 25.2323C28.5767 28.2138 28.1773 29.7045 27.2919 30.6878C26.5131 31.5527 25.4805 32.1489 24.3421 32.3909C23.0478 32.666 21.5571 32.2666 18.5756 31.4677L10.7677 29.3756C7.78625 28.5767 6.29551 28.1772 5.31221 27.2919C4.44728 26.5131 3.8511 25.4805 3.60911 24.342C3.33401 23.0478 3.73345 21.557 4.53234 18.5756L6.62445 10.7677Z" fill="#5865F2"/>
<path d="M26.3586 13.9063C25.2438 13.0123 24.0009 12.2466 22.6501 11.6383C22.3976 11.8864 22.0887 12.2284 21.8646 12.5063C20.4199 11.8918 18.9322 11.4932 17.4015 11.3104C17.3463 10.9577 17.2451 10.5059 17.1491 10.1643C15.6735 10.0153 14.2124 10.058 12.7996 10.2763C9.2815 13.2117 7.64518 16.555 7.05862 20.1259C8.43119 21.7648 9.87631 22.9241 11.3605 23.8271C11.8959 23.4195 12.397 22.968 12.8569 22.4738C12.3307 22.1101 11.8421 21.7045 11.3952 21.2657C11.5609 21.206 11.7248 21.1409 11.8849 21.0717C14.7186 23.3437 18.2083 24.2787 21.7599 23.7177C21.8654 23.8581 21.9748 23.9964 22.087 24.1306C21.4787 24.2881 20.8512 24.3947 20.2136 24.4466C20.3652 25.103 20.5714 25.7457 20.8328 26.3668C22.5712 26.3273 24.4039 26.0462 26.4125 25.3117C27.8983 21.3881 27.7373 17.5979 26.3586 13.9063ZM14.0662 19.7108C13.102 19.4525 12.538 18.395 12.8139 17.3652C13.0898 16.3354 14.0906 15.6956 15.0716 15.9585C16.0527 16.2214 16.6168 17.2788 16.3235 18.3056C16.0492 19.3358 15.0473 19.9737 14.0662 19.7108ZM20.5513 21.4485C19.5871 21.1902 19.023 20.1326 19.2989 19.1029C19.5749 18.073 20.5757 17.4333 21.5567 17.6962C22.5377 17.959 23.1018 19.0165 22.8086 20.0433C22.5327 21.073 21.5323 21.7114 20.5513 21.4485Z" fill="white"/>
</svg>
