<svg width="24" height="24" viewBox="0 0 24 24" fill="none" xmlns="http://www.w3.org/2000/svg">
<path d="M16.8198 2H7.17982C5.04982 2 3.31982 3.74 3.31982 5.86V19.95C3.31982 21.75 4.60982 22.51 6.18982 21.64L11.0698 18.93C11.5898 18.64 12.4298 18.64 12.9398 18.93L17.8198 21.64C19.3998 22.52 20.6898 21.76 20.6898 19.95V5.86C20.6798 3.74 18.9498 2 16.8198 2ZM14.4998 11.4H9.49982C9.08982 11.4 8.74982 11.06 8.74982 10.65C8.74982 10.24 9.08982 9.9 9.49982 9.9H14.4998C14.9098 9.9 15.2498 10.24 15.2498 10.65C15.2498 11.06 14.9098 11.4 14.4998 11.4Z" fill="#3366FF"/>
</svg>
