<svg width="22" height="22" viewBox="0 0 22 22" fill="none" xmlns="http://www.w3.org/2000/svg">
<circle cx="11" cy="11" r="8.43383" transform="rotate(8.80157 11 11)" fill="#FF3366"/>
<path d="M8.71124 7.51192C9.28662 7.60101 9.82528 7.20679 9.91437 6.63141C10.0035 6.05603 9.60924 5.51738 9.03386 5.42829C8.45848 5.3392 7.91983 5.73341 7.83074 6.30879C7.74165 6.88417 8.13586 7.42283 8.71124 7.51192Z" fill="white"/>
<path d="M6.39632 8.06788L5.82759 9.34188L7.01824 9.52624C6.62922 10.4598 5.8133 12.4238 5.66178 12.8119C5.47239 13.2969 5.23195 14.7265 6.73889 14.9598C7.79068 15.1227 8.56677 14.5471 9.02687 14.0502L8.56861 15.1383L10.2616 15.4005L11.6991 11.9605C11.9168 11.3848 12.3902 10.2818 13.4574 10.447C14.7266 10.6436 14.0282 12.0744 13.686 12.7756C13.6721 12.8041 13.6587 12.8315 13.6461 12.8575C13.3886 13.3891 13.1054 14.012 13.0363 14.4585C12.9585 14.9608 13.0456 15.9363 14.3479 16.138C15.6501 16.3396 16.4049 15.1357 16.6194 14.5085L16.0008 14.1365C15.901 14.4735 15.3672 15.1528 14.9765 15.0923C14.4417 15.0095 14.8499 14.1494 15.2856 13.2315C15.4789 12.8244 15.6776 12.4058 15.8017 12.0388C16.1156 11.1106 16.2007 9.46212 14.5449 9.20575C13.5166 9.04652 12.5672 9.83783 12.0845 10.4145L12.6286 9.03286L10.052 8.6339L9.49255 9.90935L10.6925 10.0951C10.6925 10.0951 9.5311 12.8868 9.47098 12.9707C8.83929 13.8515 8.05803 14.0591 7.51635 13.9372C7.08191 13.8395 7.21519 13.3191 7.33613 13.0711L9.26132 8.51148L6.39632 8.06788Z" fill="white"/>
</svg>
