<svg width="20" height="20" viewBox="0 0 20 20" fill="none" xmlns="http://www.w3.org/2000/svg">
<path d="M9.99984 18.9584C5.05817 18.9584 1.0415 14.9417 1.0415 10C1.0415 5.05835 5.05817 1.04169 9.99984 1.04169C14.9415 1.04169 18.9582 5.05835 18.9582 10C18.9582 14.9417 14.9415 18.9584 9.99984 18.9584ZM9.99984 2.29169C5.74984 2.29169 2.2915 5.75002 2.2915 10C2.2915 14.25 5.74984 17.7084 9.99984 17.7084C14.2498 17.7084 17.7082 14.25 17.7082 10C17.7082 5.75002 14.2498 2.29169 9.99984 2.29169Z" fill="#111827"/>
<path d="M7.64147 12.9833C7.48314 12.9833 7.3248 12.925 7.1998 12.8C6.95814 12.5583 6.95814 12.1583 7.1998 11.9167L11.9165 7.19999C12.1581 6.95832 12.5581 6.95832 12.7998 7.19999C13.0415 7.44165 13.0415 7.84165 12.7998 8.08332L8.08314 12.8C7.96647 12.925 7.7998 12.9833 7.64147 12.9833Z" fill="#111827"/>
<path d="M12.3581 12.9833C12.1998 12.9833 12.0415 12.925 11.9165 12.8L7.1998 8.08332C6.95814 7.84165 6.95814 7.44165 7.1998 7.19999C7.44147 6.95832 7.84147 6.95832 8.08314 7.19999L12.7998 11.9167C13.0415 12.1583 13.0415 12.5583 12.7998 12.8C12.6748 12.925 12.5165 12.9833 12.3581 12.9833Z" fill="#111827"/>
</svg>
