<svg width="40" height="40" viewBox="0 0 40 40" fill="none" xmlns="http://www.w3.org/2000/svg">
<path d="M13.7782 24.4667C13.4715 24.4667 13.2649 24.4967 13.1582 24.5267V26.49C13.2849 26.52 13.4432 26.5284 13.6615 26.5284C14.4599 26.5284 14.9515 26.125 14.9515 25.4434C14.9515 24.8334 14.5282 24.4667 13.7782 24.4667ZM19.5899 24.4867C19.2565 24.4867 19.0399 24.5167 18.9115 24.5467V28.8967C19.0399 28.9267 19.2465 28.9267 19.4332 28.9267C20.7949 28.9367 21.6815 28.1867 21.6815 26.6C21.6915 25.2167 20.8832 24.4867 19.5899 24.4867Z" fill="#DB291F"/>
<path d="M23.919 3.9191C23.5439 3.54403 23.0352 3.33331 22.5047 3.33331H9.99984C9.11578 3.33331 8.26794 3.6845 7.64281 4.30962C7.01769 4.93474 6.6665 5.78259 6.6665 6.66665V33.3333C6.6665 34.2174 7.01769 35.0652 7.64281 35.6903C8.26794 36.3155 9.11578 36.6666 9.99984 36.6666H29.9998C30.8839 36.6666 31.7317 36.3155 32.3569 35.6903C32.982 35.0652 33.3332 34.2174 33.3332 33.3333V14.1617C33.3332 13.6313 33.1225 13.1226 32.7474 12.7475L23.919 3.9191ZM15.8298 26.9833C15.3148 27.4666 14.5548 27.6833 13.6698 27.6833C13.4982 27.6852 13.3267 27.6752 13.1565 27.6533V30.03H11.6665V23.47C12.3389 23.3697 13.0184 23.324 13.6982 23.3333C14.6265 23.3333 15.2865 23.51 15.7315 23.865C16.1548 24.2016 16.4415 24.7533 16.4415 25.4033C16.4398 26.0566 16.2232 26.6083 15.8298 26.9833ZM22.1748 29.2416C21.4748 29.8233 20.4098 30.1 19.1082 30.1C18.3282 30.1 17.7765 30.05 17.4015 30V23.4716C18.0742 23.3735 18.7534 23.3272 19.4332 23.3333C20.6948 23.3333 21.5148 23.56 22.1548 24.0433C22.8465 24.5566 23.2798 25.375 23.2798 26.55C23.2798 27.8216 22.8148 28.7 22.1748 29.2416ZM28.3332 24.6166H25.7798V26.135H28.1665V27.3583H25.7798V30.0316H24.2698V23.3833H28.3332V24.6166ZM23.3332 15H21.6665V6.66665L29.9998 15H23.3332Z" fill="#DB291F"/>
</svg>
