<svg width="26" height="22" viewBox="0 0 26 22" fill="none" xmlns="http://www.w3.org/2000/svg">
<circle cx="9.401" cy="9.401" r="9.401" transform="matrix(1.01771 0 -0.19227 0.999383 5.24005 1.34217)" fill="#FF3366"/>
<path d="M10.4923 7.28756C11.1528 7.28756 11.7894 6.76176 11.9142 6.11316C12.039 5.46456 11.6047 4.93876 10.9442 4.93876C10.2837 4.93876 9.64713 5.46456 9.52235 6.11316C9.39756 6.76176 9.83184 7.28756 10.4923 7.28756Z" fill="white"/>
<path d="M7.80002 8.29419L7.0951 9.79364H8.46189C7.97734 10.8877 6.96084 13.1889 6.77118 13.6419C6.53411 14.2081 6.20205 15.8229 7.93192 15.8229C9.13931 15.8229 10.0568 15.057 10.6067 14.4316L10.0363 15.7076H11.9797L13.7698 11.6756C14.0431 11.0047 14.6315 9.70976 15.8565 9.70976C17.3135 9.70976 16.453 11.4039 16.0314 12.2342C16.0142 12.268 15.9977 12.3004 15.9822 12.3312C15.6647 12.9603 15.3142 13.6943 15.2173 14.1976C15.1084 14.7639 15.1716 15.8229 16.6665 15.8229C18.1615 15.8229 19.0783 14.3689 19.3499 13.6419L18.6502 13.3378C18.5222 13.7258 17.8803 14.5646 17.4318 14.5646C16.8179 14.5646 17.3218 13.5482 17.8597 12.4634C18.0982 11.9823 18.3434 11.4877 18.5007 11.0624C18.8984 9.98715 19.0595 8.15787 17.1588 8.15787C15.9783 8.15787 14.8526 9.19083 14.2737 9.90796L14.9543 8.29419H11.9965L11.3022 9.79364H12.6797C12.6797 9.79364 11.2329 13.0649 11.1604 13.1674C10.3978 14.2448 9.48844 14.6065 8.86807 14.5646C8.37053 14.5311 8.5442 13.9355 8.69323 13.6419L11.0888 8.29419H7.80002Z" fill="white"/>
</svg>
