<svg width="16" height="16" viewBox="0 0 16 16" fill="none" xmlns="http://www.w3.org/2000/svg">
<path d="M10 15.1666H6C2.38 15.1666 0.833332 13.6199 0.833332 9.99992V5.99992C0.833332 2.37992 2.38 0.833252 6 0.833252H10C13.62 0.833252 15.1667 2.37992 15.1667 5.99992V9.99992C15.1667 13.6199 13.62 15.1666 10 15.1666ZM6 1.83325C2.92667 1.83325 1.83333 2.92659 1.83333 5.99992V9.99992C1.83333 13.0733 2.92667 14.1666 6 14.1666H10C13.0733 14.1666 14.1667 13.0733 14.1667 9.99992V5.99992C14.1667 2.92659 13.0733 1.83325 10 1.83325H6Z" fill="#9CA3AF"/>
</svg>
