<svg width="32" height="32" viewBox="0 0 32 32" fill="none" xmlns="http://www.w3.org/2000/svg">
<path d="M22.9866 30.3333H9.01324C5.27991 30.3333 2.90657 28.1067 2.69324 24.3867L1.99991 13.3867C1.89324 11.72 2.46657 10.12 3.61324 8.90666C4.74657 7.69332 6.34657 6.99999 7.99991 6.99999C8.42657 6.99999 8.83991 6.74666 9.03991 6.34666L9.99991 4.43999C10.7866 2.87999 12.7599 1.66666 14.4799 1.66666H17.5332C19.2532 1.66666 21.2132 2.87999 21.9999 4.42666L22.9599 6.37332C23.1599 6.74666 23.5599 6.99999 23.9999 6.99999C25.6532 6.99999 27.2532 7.69332 28.3866 8.90666C29.5332 10.1333 30.1066 11.72 29.9999 13.3867L29.3066 24.4C29.0666 28.1733 26.7599 30.3333 22.9866 30.3333ZM14.4799 3.66666C13.4932 3.66666 12.2399 4.43999 11.7866 5.33332L10.8266 7.25332C10.2666 8.33332 9.18657 8.99999 7.99991 8.99999C6.87991 8.99999 5.83991 9.45332 5.06657 10.2667C4.30657 11.08 3.91991 12.1467 3.99991 13.2533L4.69324 24.2667C4.85324 26.96 6.30657 28.3333 9.01324 28.3333H22.9866C25.6799 28.3333 27.1332 26.96 27.3066 24.2667L27.9999 13.2533C28.0666 12.1467 27.6932 11.08 26.9332 10.2667C26.1599 9.45332 25.1199 8.99999 23.9999 8.99999C22.8132 8.99999 21.7332 8.33332 21.1732 7.27999L20.1999 5.33332C19.7599 4.45332 18.5066 3.67999 17.5199 3.67999H14.4799V3.66666Z" fill="white"/>
<path d="M18 11.6667H14C13.4533 11.6667 13 11.2133 13 10.6667C13 10.12 13.4533 9.66666 14 9.66666H18C18.5467 9.66666 19 10.12 19 10.6667C19 11.2133 18.5467 11.6667 18 11.6667Z" fill="white"/>
<path d="M15.9998 25C13.0532 25 10.6665 22.6133 10.6665 19.6667C10.6665 16.72 13.0532 14.3333 15.9998 14.3333C18.9465 14.3333 21.3332 16.72 21.3332 19.6667C21.3332 22.6133 18.9465 25 15.9998 25ZM15.9998 16.3333C14.1598 16.3333 12.6665 17.8267 12.6665 19.6667C12.6665 21.5067 14.1598 23 15.9998 23C17.8398 23 19.3332 21.5067 19.3332 19.6667C19.3332 17.8267 17.8398 16.3333 15.9998 16.3333Z" fill="white"/>
</svg>
