<svg width="47" height="54" viewBox="0 0 47 54" fill="none" xmlns="http://www.w3.org/2000/svg">
<path d="M23.4755 54C20.7388 54 18.0272 53.1965 15.893 51.6147L5.09682 43.5552C2.23457 41.4211 0 36.952 0 33.4118V14.7318C0 10.8653 2.83715 6.74764 6.47773 5.39184L19.0064 0.696733C21.492 -0.232244 25.4088 -0.232244 27.8944 0.696733L40.4231 5.39184C44.0637 6.74764 46.9008 10.8653 46.9008 14.7318V33.3867C46.9008 36.952 44.6662 41.396 41.804 43.5301L31.0078 51.5896C28.9238 53.1965 26.2122 54 23.4755 54ZM20.3371 4.23689L7.80843 8.93199C5.67429 9.73543 3.79123 12.447 3.79123 14.7569V33.4118C3.79123 35.797 5.47343 39.1363 7.3565 40.5423L18.1527 48.6018C21.0401 50.7611 25.9109 50.7611 28.8234 48.6018L39.6196 40.5423C41.5278 39.1112 43.1849 35.797 43.1849 33.4118V14.7318C43.1849 12.447 41.3018 9.73543 39.1677 8.90689L26.6391 4.21178C24.9317 3.6092 22.0193 3.6092 20.3371 4.23689Z" fill="#3366FF"/>
<path d="M20.1112 32.5832C19.6342 32.5832 19.1571 32.4075 18.7805 32.0308L14.7382 27.9885C14.0101 27.2604 14.0101 26.0553 14.7382 25.3271C15.4663 24.599 16.6715 24.599 17.3996 25.3271L20.1112 28.0388L29.5767 18.5732C30.3048 17.8451 31.51 17.8451 32.2381 18.5732C32.9662 19.3013 32.9662 20.5065 32.2381 21.2346L21.4419 32.0308C21.0653 32.4075 20.5882 32.5832 20.1112 32.5832Z" fill="#091A7A"/>
</svg>
