<svg width="22" height="22" viewBox="0 0 22 22" fill="none" xmlns="http://www.w3.org/2000/svg">
<path d="M10.9999 20.8542C5.56409 20.8542 1.14575 16.4358 1.14575 11C1.14575 5.56416 5.56409 1.14583 10.9999 1.14583C16.4358 1.14583 20.8541 5.56416 20.8541 11C20.8541 16.4358 16.4358 20.8542 10.9999 20.8542ZM10.9999 2.52083C6.32492 2.52083 2.52075 6.32499 2.52075 11C2.52075 15.675 6.32492 19.4792 10.9999 19.4792C15.6749 19.4792 19.4791 15.675 19.4791 11C19.4791 6.32499 15.6749 2.52083 10.9999 2.52083Z" fill="#3366FF"/>
<path d="M13.2917 11.6875H7.79175C7.41591 11.6875 7.10425 11.3758 7.10425 11C7.10425 10.6242 7.41591 10.3125 7.79175 10.3125H13.2917C13.6676 10.3125 13.9792 10.6242 13.9792 11C13.9792 11.3758 13.6676 11.6875 13.2917 11.6875Z" fill="#3366FF"/>
<path d="M11.4584 14.4375C11.2842 14.4375 11.1101 14.3733 10.9726 14.2358C10.7067 13.97 10.7067 13.53 10.9726 13.2642L13.2367 11L10.9726 8.73583C10.7067 8.47 10.7067 8.03 10.9726 7.76416C11.2384 7.49833 11.6784 7.49833 11.9442 7.76416L14.6942 10.5142C14.9601 10.78 14.9601 11.22 14.6942 11.4858L11.9442 14.2358C11.8067 14.3733 11.6326 14.4375 11.4584 14.4375Z" fill="#3366FF"/>
</svg>
