<svg width="21" height="21" viewBox="0 0 21 21" fill="none" xmlns="http://www.w3.org/2000/svg">
<path d="M17.1622 10.9458H13.8244C11.321 10.9458 10.0542 9.52818 10.0542 6.72316V3.83771C10.0542 2.81222 10.1748 1.34437 11.2405 0.540059C12.1353 -0.123493 13.4222 -0.173763 15.3224 0.379198C17.8157 1.10307 19.8969 3.18421 20.6208 5.67756C21.1737 7.56768 21.1235 8.86463 20.4599 9.74936C19.6556 10.8251 18.1877 10.9458 17.1622 10.9458ZM13.1005 1.50523C12.6883 1.50523 12.3666 1.58566 12.1554 1.74652C11.7633 2.03808 11.5723 2.72174 11.5723 3.83771V6.73322C11.5723 8.98527 12.4369 9.44775 13.8344 9.44775H17.1723C18.2782 9.44775 18.9619 9.25673 19.2635 8.86463C19.6154 8.40215 19.5852 7.4772 19.1931 6.11993C18.61 4.13933 16.9008 2.42012 14.9202 1.84706C14.1763 1.61582 13.573 1.50523 13.1005 1.50523Z" fill="#292D32"/>
<path d="M9.87323 20.9996C9.34038 20.9996 8.79747 20.9594 8.25456 20.8689C4.14255 20.2053 0.794625 16.8675 0.131073 12.7554C-0.723502 7.46714 2.68474 2.48044 7.90268 1.41474C8.31489 1.33431 8.70699 1.5957 8.79747 1.99786C8.8779 2.41006 8.6165 2.80216 8.21435 2.89265C3.80072 3.79749 0.905217 8.0201 1.63915 12.5142C2.20216 15.9928 5.02729 18.8179 8.50591 19.3809C13.0201 20.1048 17.2326 17.1992 18.1274 12.7655C18.2078 12.3533 18.61 12.0919 19.0122 12.1723C19.4244 12.2528 19.6858 12.6549 19.6053 13.0571C18.6502 17.7522 14.5483 20.9996 9.87323 20.9996Z" fill="#292D32"/>
</svg>
