<svg width="20" height="20" viewBox="0 0 20 20" fill="none" xmlns="http://www.w3.org/2000/svg">
<path d="M12.7169 18.5417H7.28356C3.19189 18.5417 1.44189 16.7917 1.44189 12.7V12.5917C1.44189 8.89167 2.90023 7.10833 6.16689 6.8C6.50023 6.775 6.81689 7.025 6.85023 7.36667C6.88356 7.70833 6.63356 8.01667 6.28356 8.05C3.66689 8.29167 2.69189 9.525 2.69189 12.6V12.7083C2.69189 16.1 3.89189 17.3 7.28356 17.3H12.7169C16.1086 17.3 17.3086 16.1 17.3086 12.7083V12.6C17.3086 9.50833 16.3169 8.275 13.6502 8.05C13.3086 8.01667 13.0502 7.71667 13.0836 7.375C13.1169 7.03333 13.4086 6.775 13.7586 6.80833C17.0752 7.09167 18.5586 8.88333 18.5586 12.6083V12.7167C18.5586 16.7917 16.8086 18.5417 12.7169 18.5417Z" fill="#3366FF"/>
<path d="M10 13.125C9.65833 13.125 9.375 12.8417 9.375 12.5V3.01666C9.375 2.675 9.65833 2.39166 10 2.39166C10.3417 2.39166 10.625 2.675 10.625 3.01666V12.5C10.625 12.8417 10.3417 13.125 10 13.125Z" fill="#3366FF"/>
<path d="M12.7917 5.5C12.6334 5.5 12.475 5.44167 12.35 5.31667L10 2.96667L7.65003 5.31667C7.40837 5.55834 7.00837 5.55834 6.7667 5.31667C6.52503 5.075 6.52503 4.675 6.7667 4.43334L9.55837 1.64167C9.80003 1.4 10.2 1.4 10.4417 1.64167L13.2334 4.43334C13.475 4.675 13.475 5.075 13.2334 5.31667C13.1167 5.44167 12.95 5.5 12.7917 5.5Z" fill="#3366FF"/>
</svg>
