<svg width="20" height="20" viewBox="0 0 20 20" fill="none" xmlns="http://www.w3.org/2000/svg">
<path d="M15 8.45841C14.9699 8.45841 14.9386 8.44613 14.9129 8.42049C14.8873 8.39484 14.875 8.36356 14.875 8.33341V6.66675C14.875 5.33172 14.6924 4.08255 13.9337 3.17432C13.1579 2.24559 11.8854 1.79175 10 1.79175C8.11455 1.79175 6.84211 2.24559 6.06627 3.17432C5.30756 4.08255 5.125 5.33172 5.125 6.66675V8.33341C5.125 8.36356 5.11272 8.39484 5.08707 8.42049C5.06143 8.44613 5.03015 8.45841 5 8.45841C4.96985 8.45841 4.93857 8.44613 4.91293 8.42049C4.88728 8.39484 4.875 8.36356 4.875 8.33341V6.66675C4.875 5.47963 5.02312 4.20705 5.70595 3.23551C6.36327 2.30026 7.59282 1.54175 10 1.54175C12.4072 1.54175 13.6367 2.30026 14.2941 3.23551C14.9769 4.20705 15.125 5.47963 15.125 6.66675V8.33341C15.125 8.36356 15.1127 8.39484 15.0871 8.42049C15.0614 8.44613 15.0301 8.45841 15 8.45841Z" fill="#292D32" stroke="#9CA3AF"/>
<path d="M9.99984 15.5417C8.78431 15.5417 7.7915 14.5489 7.7915 13.3333C7.7915 12.1178 8.78431 11.125 9.99984 11.125C11.2154 11.125 12.2082 12.1178 12.2082 13.3333C12.2082 14.5489 11.2154 15.5417 9.99984 15.5417ZM9.99984 11.375C8.92369 11.375 8.0415 12.2572 8.0415 13.3333C8.0415 14.4095 8.92369 15.2917 9.99984 15.2917C11.076 15.2917 11.9582 14.4095 11.9582 13.3333C11.9582 12.2572 11.076 11.375 9.99984 11.375Z" fill="#292D32" stroke="#9CA3AF"/>
<path d="M14.1665 18.4583H5.83317C4.01289 18.4583 2.99921 18.1734 2.41277 17.587C1.82632 17.0005 1.5415 15.9869 1.5415 14.1666V12.4999C1.5415 10.6796 1.82632 9.66596 2.41277 9.07951C2.99921 8.49307 4.01289 8.20825 5.83317 8.20825H14.1665C15.9868 8.20825 17.0005 8.49307 17.5869 9.07951C18.1734 9.66596 18.4582 10.6796 18.4582 12.4999V14.1666C18.4582 15.9869 18.1734 17.0005 17.5869 17.587C17.0005 18.1734 15.9868 18.4583 14.1665 18.4583ZM5.83317 8.45825C5.07851 8.45825 4.44211 8.49341 3.91792 8.60406C3.38816 8.71589 2.93711 8.91213 2.58968 9.26027C2.2423 9.60835 2.04708 10.0596 1.93602 10.5887C1.82612 11.1123 1.7915 11.7475 1.7915 12.4999V14.1666C1.7915 14.919 1.82612 15.5542 1.93602 16.0778C2.04708 16.6069 2.2423 17.0582 2.58968 17.4062C2.93711 17.7544 3.38816 17.9506 3.91792 18.0624C4.44211 18.1731 5.07851 18.2083 5.83317 18.2083H14.1665C14.9212 18.2083 15.5576 18.1731 16.0818 18.0624C16.6115 17.9506 17.0626 17.7544 17.41 17.4062C17.7574 17.0582 17.9526 16.6069 18.0637 16.0778C18.1736 15.5542 18.2082 14.919 18.2082 14.1666V12.4999C18.2082 11.7475 18.1736 11.1123 18.0637 10.5887C17.9526 10.0596 17.7574 9.60835 17.41 9.26027C17.0626 8.91213 16.6115 8.71589 16.0818 8.60406C15.5576 8.49341 14.9212 8.45825 14.1665 8.45825H5.83317Z" fill="#292D32" stroke="#9CA3AF"/>
</svg>
