<svg width="20" height="20" viewBox="0 0 20 20" fill="none" xmlns="http://www.w3.org/2000/svg">
<path d="M15 8.95841C14.6583 8.95841 14.375 8.67508 14.375 8.33341V6.66675C14.375 4.04175 13.6333 2.29175 10 2.29175C6.36667 2.29175 5.625 4.04175 5.625 6.66675V8.33341C5.625 8.67508 5.34167 8.95841 5 8.95841C4.65833 8.95841 4.375 8.67508 4.375 8.33341V6.66675C4.375 4.25008 4.95833 1.04175 10 1.04175C15.0417 1.04175 15.625 4.25008 15.625 6.66675V8.33341C15.625 8.67508 15.3417 8.95841 15 8.95841Z" fill="#292D32"/>
<path d="M10 16.0417C8.50835 16.0417 7.29169 14.825 7.29169 13.3333C7.29169 11.8417 8.50835 10.625 10 10.625C11.4917 10.625 12.7084 11.8417 12.7084 13.3333C12.7084 14.825 11.4917 16.0417 10 16.0417ZM10 11.875C9.20002 11.875 8.54169 12.5333 8.54169 13.3333C8.54169 14.1333 9.20002 14.7917 10 14.7917C10.8 14.7917 11.4584 14.1333 11.4584 13.3333C11.4584 12.5333 10.8 11.875 10 11.875Z" fill="#292D32"/>
<path d="M14.1667 18.9583H5.83335C2.15835 18.9583 1.04169 17.8416 1.04169 14.1666V12.4999C1.04169 8.82492 2.15835 7.70825 5.83335 7.70825H14.1667C17.8417 7.70825 18.9584 8.82492 18.9584 12.4999V14.1666C18.9584 17.8416 17.8417 18.9583 14.1667 18.9583ZM5.83335 8.95825C2.85002 8.95825 2.29169 9.52492 2.29169 12.4999V14.1666C2.29169 17.1416 2.85002 17.7083 5.83335 17.7083H14.1667C17.15 17.7083 17.7084 17.1416 17.7084 14.1666V12.4999C17.7084 9.52492 17.15 8.95825 14.1667 8.95825H5.83335Z" fill="#292D32"/>
</svg>
