<svg width="22" height="21" viewBox="0 0 22 21" fill="none" xmlns="http://www.w3.org/2000/svg">
<path d="M8.95349 16.2902H5.07535C1.18698 16.2902 0 15.1033 0 11.2149V5.07535C0 1.18698 1.18698 0 5.07535 0H15.8502C19.7386 0 20.9256 1.18698 20.9256 5.07535C20.9256 5.49488 20.5777 5.84279 20.1581 5.84279C19.7386 5.84279 19.3907 5.49488 19.3907 5.07535C19.3907 2.06698 18.8586 1.53488 15.8502 1.53488H5.07535C2.06698 1.53488 1.53488 2.06698 1.53488 5.07535V11.2149C1.53488 14.2233 2.06698 14.7553 5.07535 14.7553H8.95349C9.37302 14.7553 9.72093 15.1033 9.72093 15.5228C9.72093 15.9423 9.37302 16.2902 8.95349 16.2902Z" fill="#292D32"/>
<path d="M8.95349 20.9153C8.53395 20.9153 8.18605 20.5674 8.18605 20.1478V15.5125C8.18605 15.0929 8.53395 14.745 8.95349 14.745C9.37302 14.745 9.72093 15.0929 9.72093 15.5125V20.1478C9.72093 20.5776 9.37302 20.9153 8.95349 20.9153Z" fill="#292D32"/>
<path d="M8.95349 12.1971H0.767442C0.347907 12.1971 0 11.8492 0 11.4297C0 11.0102 0.347907 10.6622 0.767442 10.6622H8.95349C9.37302 10.6622 9.72093 11.0102 9.72093 11.4297C9.72093 11.8492 9.37302 12.1971 8.95349 12.1971Z" fill="#292D32"/>
<path d="M8.95348 20.9153H5.61766C5.19813 20.9153 4.85022 20.5674 4.85022 20.1478C4.85022 19.7283 5.19813 19.3804 5.61766 19.3804H8.95348C9.37301 19.3804 9.72092 19.7283 9.72092 20.1478C9.72092 20.5674 9.37301 20.9153 8.95348 20.9153Z" fill="#292D32"/>
<path d="M18.2038 20.9153H14.5712C11.7368 20.9153 10.7749 19.9534 10.7749 17.119V11.2762C10.7749 8.4418 11.7368 7.47994 14.5712 7.47994H18.2038C21.0382 7.47994 22 8.4418 22 11.2762V17.119C22 19.9637 21.0382 20.9153 18.2038 20.9153ZM14.5712 9.01482C12.5656 9.01482 12.3098 9.27063 12.3098 11.2762V17.119C12.3098 19.1246 12.5656 19.3804 14.5712 19.3804H18.2038C20.2093 19.3804 20.4651 19.1246 20.4651 17.119V11.2762C20.4651 9.27063 20.2093 9.01482 18.2038 9.01482H14.5712Z" fill="#292D32"/>
<path d="M16.4233 17.5898C16.1573 17.5898 15.8912 17.4875 15.6968 17.293C15.6047 17.2009 15.5331 17.0884 15.4819 16.9656C15.4307 16.8326 15.4 16.6996 15.4 16.5665C15.4 16.3005 15.5126 16.0344 15.6968 15.8502C15.9321 15.6149 16.2903 15.5023 16.628 15.5637C16.6894 15.5842 16.7507 15.6047 16.8121 15.6251C16.8735 15.6558 16.9349 15.6865 16.9861 15.7172C17.0475 15.7582 17.0987 15.7991 17.1498 15.8502C17.334 16.0344 17.4466 16.3005 17.4466 16.5665C17.4466 16.6996 17.4159 16.8326 17.3647 16.9656C17.3135 17.0884 17.2419 17.2009 17.1498 17.293C17.0987 17.3442 17.0475 17.3851 16.9861 17.4158C16.9349 17.4568 16.8735 17.4875 16.8121 17.5182C16.7507 17.5386 16.6894 17.5591 16.628 17.5693C16.5563 17.5898 16.4949 17.5898 16.4233 17.5898Z" fill="#292D32"/>
</svg>
