<svg width="22" height="22" viewBox="0 0 22 22" fill="none" xmlns="http://www.w3.org/2000/svg">
<path d="M7.93019 16.8838C7.81763 16.8838 7.69484 16.8531 7.59252 16.8019C6.80461 16.4028 6.12926 15.8093 5.6381 15.0726C5.2288 14.4587 5.2288 13.6707 5.6381 13.0568C6.12926 12.32 6.80461 11.7266 7.59252 11.3377C7.97112 11.1433 8.43159 11.307 8.62601 11.6856C8.82043 12.0642 8.66694 12.5247 8.2781 12.7191C7.72554 12.9954 7.25484 13.4149 6.91717 13.9266C6.85577 14.0187 6.85577 14.1414 6.91717 14.2438C7.25484 14.7554 7.72554 15.1749 8.2781 15.4512C8.6567 15.6456 8.81019 16.1061 8.62601 16.4847C8.48275 16.7303 8.20647 16.8838 7.93019 16.8838Z" fill="#292D32"/>
<path d="M14.2846 16.8838C13.9981 16.8838 13.7321 16.7303 13.599 16.4642C13.4046 16.0856 13.5581 15.6252 13.947 15.4307C14.4995 15.1545 14.9702 14.7349 15.3079 14.2233C15.3693 14.1312 15.3693 14.0084 15.3079 13.9061C14.9702 13.3945 14.4995 12.9749 13.947 12.6986C13.5683 12.5042 13.4149 12.0438 13.599 11.6652C13.7935 11.2866 14.2539 11.1331 14.6325 11.3173C15.4204 11.7163 16.0958 12.3098 16.5869 13.0466C16.9963 13.6605 16.9963 14.4484 16.5869 15.0624C16.0958 15.7991 15.4204 16.3926 14.6325 16.7814C14.5097 16.8531 14.3972 16.8838 14.2846 16.8838Z" fill="#292D32"/>
<path d="M14.0698 22H7.93023C2.37395 22 0 19.626 0 14.0698V7.93023C0 2.37395 2.37395 0 7.93023 0H14.0698C19.626 0 22 2.37395 22 7.93023V14.0698C22 19.626 19.626 22 14.0698 22ZM7.93023 1.53488C3.21302 1.53488 1.53488 3.21302 1.53488 7.93023V14.0698C1.53488 18.787 3.21302 20.4651 7.93023 20.4651H14.0698C18.787 20.4651 20.4651 18.787 20.4651 14.0698V7.93023C20.4651 3.21302 18.787 1.53488 14.0698 1.53488H7.93023Z" fill="#292D32"/>
<path d="M1.00277 7.68465C0.583236 7.68465 0.235329 7.33674 0.235329 6.91721C0.235329 6.49767 0.573003 6.14977 1.00277 6.14977L20.6697 6.13953C21.0893 6.13953 21.4372 6.48744 21.4372 6.90698C21.4372 7.32651 21.0995 7.67442 20.6697 7.67442L1.00277 7.68465Z" fill="#292D32"/>
</svg>
