<svg width="24" height="24" viewBox="0 0 24 24" fill="none" xmlns="http://www.w3.org/2000/svg">
<path d="M2.30001 8.28258C2.44612 5.90845 2.51917 4.72139 3.03701 3.84302C3.49252 3.07039 4.18093 2.4618 5.00358 2.10447C5.93882 1.69823 7.12588 1.77129 9.50001 1.91739L15.7174 2.30001C18.0915 2.44612 19.2786 2.51917 20.157 3.03701C20.9296 3.49252 21.5382 4.18093 21.8955 5.00359C22.3017 5.93882 22.2287 7.12588 22.0826 9.50001L21.7 15.7174C21.5539 18.0915 21.4808 19.2786 20.963 20.157C20.5075 20.9296 19.819 21.5382 18.9964 21.8955C18.0612 22.3017 16.8741 22.2287 14.5 22.0826L8.28258 21.7C5.90845 21.5539 4.72139 21.4808 3.84302 20.963C3.07039 20.5075 2.4618 19.819 2.10446 18.9964C1.69823 18.0612 1.77129 16.8741 1.91739 14.5L2.30001 8.28258Z" fill="#5865F2"/>
<path d="M17.6846 7.62658C16.7056 7.12238 15.6496 6.73473 14.5361 6.48251C14.3835 6.70863 14.2027 7.01428 14.076 7.25848C12.8908 7.01597 11.7061 6.94307 10.5221 7.03977C10.4263 6.78187 10.2806 6.45614 10.1557 6.21294C9.01851 6.32666 7.9216 6.58299 6.88816 6.96451C4.68142 9.72084 3.95837 12.4967 4.06299 15.2833C5.35089 16.3106 6.62004 16.9645 7.87938 17.4188C8.22122 17.0289 8.53041 16.611 8.80193 16.1673C8.34876 15.9734 7.91754 15.742 7.51279 15.4791C7.6288 15.4086 7.74259 15.3343 7.85286 15.2575C10.3413 16.5388 13.1201 16.7098 15.7163 15.7414C15.8175 15.8313 15.9213 15.9189 16.0266 16.0031C15.5914 16.2154 15.1338 16.3921 14.6603 16.529C14.8754 17.0015 15.1297 17.4552 15.4224 17.8842C16.7292 17.5878 18.0701 17.0945 19.4744 16.2318C19.9947 13.0408 19.2919 10.2031 17.6846 7.62658ZM9.29149 13.8953C8.52374 13.848 7.93557 13.1359 7.98603 12.3159C8.03649 11.4959 8.69417 10.8592 9.47537 10.9073C10.2566 10.9554 10.8447 11.6675 10.7808 12.4879C10.7315 13.3079 10.0727 13.9434 9.29149 13.8953ZM14.4555 14.2131C13.6878 14.1658 13.0996 13.4537 13.15 12.6337C13.2005 11.8137 13.8582 11.177 14.6394 11.2251C15.4206 11.2732 16.0088 11.9853 15.9448 12.8057C15.8943 13.6257 15.2367 14.2612 14.4555 14.2131Z" fill="white"/>
</svg>
