<svg width="20" height="20" viewBox="0 0 20 20" fill="none" xmlns="http://www.w3.org/2000/svg">
<path d="M9.86544 8.93311L9.92381 8.93516L9.96135 8.92765C9.96838 8.92738 9.9784 8.92716 9.99135 8.92716C10.0262 8.92716 10.0696 8.92873 10.1113 8.93194L10.1419 8.9343L10.1726 8.93289C12.0745 8.84556 13.565 7.28295 13.5747 5.36927H13.5747V5.36675C13.5747 3.39894 11.9675 1.79175 9.99968 1.79175C8.03187 1.79175 6.42468 3.39894 6.42468 5.36675C6.42468 7.30297 7.93823 8.86531 9.86544 8.93311ZM10.133 9.18341H10.1329H10.1327H10.1326H10.1324H10.1323H10.1321H10.132H10.1319H10.1317H10.1316H10.1314H10.1313H10.1311H10.131H10.1308H10.1307H10.1306H10.1304H10.1303H10.1301H10.13H10.1298H10.1297H10.1296H10.1294H10.1293H10.1291H10.129H10.1288H10.1287H10.1286H10.1284H10.1283H10.1281H10.128H10.1279H10.1277H10.1276H10.1274H10.1273H10.1272H10.127H10.1269H10.1267H10.1266H10.1265H10.1263H10.1262H10.1261H10.1259H10.1258H10.1256H10.1255H10.1254H10.1252H10.1251H10.125H10.1248H10.1247H10.1245H10.1244H10.1243H10.1241H10.124H10.1239H10.1237H10.1236H10.1235H10.1233H10.1232H10.1231H10.1229H10.1228H10.1226H10.1225H10.1224H10.1222H10.1221H10.122H10.1218H10.1217H10.1216H10.1214H10.1213H10.1212H10.121H10.1209H10.1208H10.1206H10.1205H10.1204H10.1203H10.1201H10.12H10.1199H10.1197H10.1196H10.1195H10.1193H10.1192H10.1191H10.1189H10.1188H10.1187H10.1185H10.1184H10.1183H10.1182H10.118H10.1179H10.1178H10.1176H10.1175H10.1174H10.1172H10.1171H10.117H10.1169H10.1167H10.1166H10.1165H10.1163H10.1162H10.1161H10.116H10.1158H10.1157H10.1156H10.1154H10.1153H10.1152H10.1151H10.1149H10.1148H10.1147H10.1145H10.1144H10.1143H10.1142H10.114H10.1139H10.1138H10.1137H10.1135H10.1134H10.1133H10.1131H10.113H10.1129H10.1128H10.1126H10.1125H10.1124H10.1123H10.1121H10.112H10.1119H10.1118H10.1116H10.1115H10.1114H10.1113H10.1111H10.111H10.1109H10.1108H10.1106H10.1105H10.1104H10.1103H10.1101H10.11H10.1099H10.1098H10.1096H10.1095H10.1094H10.1093H10.1091H10.109H10.1089H10.1088H10.1086H10.1085H10.1084H10.1083H10.1081H10.108H10.1079H10.1078H10.1077H10.1075H10.1074H10.1073H10.1072H10.107H10.1069H10.1068H10.1067H10.1065H10.1064H10.1063H10.1062H10.106H10.1059H10.1058H10.1057H10.1056H10.1054H10.1053H10.1052H10.1051H10.1049H10.1048H10.1047H10.1046H10.1045H10.1043H10.1042H10.1041H10.104H10.1038H10.1037H10.1036H10.1035H10.1033H10.1032H10.1031H10.103C10.032 9.17498 9.95965 9.17556 9.89351 9.18229C7.76301 9.0969 6.17468 7.42293 6.17468 5.36675C6.17468 3.25956 7.89249 1.54175 9.99968 1.54175C12.1066 1.54175 13.8242 3.25903 13.8247 5.36578C13.8169 7.43841 12.1986 9.1132 10.1497 9.18341H10.1497H10.1497H10.1496H10.1496H10.1495H10.1495H10.1494H10.1494H10.1493H10.1493H10.1492H10.1492H10.1491H10.1491H10.149H10.149H10.1489H10.1489H10.1488H10.1488H10.1487H10.1487H10.1486H10.1486H10.1485H10.1485H10.1484H10.1484H10.1483H10.1483H10.1483H10.1482H10.1482H10.1481H10.1481H10.148H10.148H10.1479H10.1479H10.1478H10.1478H10.1477H10.1477H10.1476H10.1476H10.1475H10.1475H10.1474H10.1474H10.1473H10.1473H10.1472H10.1472H10.1471H10.1471H10.147H10.147H10.1469H10.1469H10.1468H10.1468H10.1467H10.1467H10.1466H10.1466H10.1465H10.1465H10.1464H10.1464H10.1463H10.1463H10.1462H10.1462H10.1462H10.1461H10.1461H10.146H10.146H10.1459H10.1459H10.1458H10.1458H10.1457H10.1457H10.1456H10.1456H10.1455H10.1455H10.1454H10.1454H10.1453H10.1453H10.1452H10.1452H10.1451H10.1451H10.145H10.145H10.1449H10.1449H10.1448H10.1448H10.1447H10.1447H10.1446H10.1446H10.1445H10.1445H10.1444H10.1444H10.1443H10.1443H10.1442H10.1442H10.1441H10.1441H10.1441H10.144H10.144H10.1439H10.1439H10.1438H10.1438H10.1437H10.1437H10.1436H10.1436H10.1435H10.1435H10.1434H10.1434H10.1433H10.1433H10.1432H10.1432H10.1431H10.1431H10.143H10.143H10.1429H10.1429H10.1428H10.1428H10.1427H10.1427H10.1426H10.1426H10.1425H10.1425H10.1424H10.1424H10.1423H10.1423H10.1422H10.1422H10.1421H10.1421H10.142H10.142H10.142H10.1419H10.1419H10.1418H10.1418H10.1417H10.1417H10.1416H10.1416H10.1415H10.1415H10.1414H10.1414H10.1413H10.1413H10.1412H10.1412H10.1411H10.1411H10.141H10.141H10.1409H10.1409H10.1408H10.1408H10.1407H10.1407H10.1406H10.1406H10.1405H10.1405H10.1404H10.1404H10.1403H10.1403H10.1402H10.1402H10.1401H10.1401H10.14H10.14H10.1399H10.1399H10.1399H10.1398H10.1398H10.1397H10.1397H10.1396H10.1396H10.1395H10.1395H10.1394H10.1394H10.1393H10.1393H10.1392H10.1392H10.1391H10.1391H10.139H10.139H10.1389H10.1389H10.1388H10.1388H10.1387H10.1387H10.1386H10.1386H10.1385H10.1385H10.1384H10.1384H10.1383H10.1383H10.1382H10.1382H10.1381H10.1381H10.138H10.138H10.1379H10.1379H10.1378H10.1378H10.1378H10.1377H10.1377H10.1376H10.1376H10.1375H10.1375H10.1374H10.1374H10.1373H10.1373H10.1372H10.1372H10.1371H10.1371H10.137H10.137H10.1369H10.1369H10.1368H10.1368H10.1367H10.1367H10.1366H10.1366H10.1365H10.1365H10.1364H10.1364H10.1363H10.1363H10.1362H10.1362H10.1361H10.1361H10.136H10.136H10.1359H10.1359H10.1358H10.1358H10.1358H10.1357H10.1357H10.1356H10.1356H10.1355H10.1355H10.1354H10.1354H10.1353H10.1353H10.1352H10.1352H10.1351H10.1351H10.135H10.135H10.1349H10.1349H10.1348H10.1348H10.1347H10.1347H10.1346H10.1346H10.1345H10.1345H10.1344H10.1344H10.1343H10.1343H10.1342H10.1342H10.1341H10.1341H10.134H10.134H10.1339H10.1339H10.1338H10.1338H10.1337H10.1337H10.1337H10.1336H10.1336H10.1335H10.1335H10.1334H10.1334H10.1333H10.1333H10.1332H10.1332H10.1331H10.1331H10.133Z" fill="#292D32" stroke="#111827"/>
<path d="M10.1413 18.7916C8.50801 18.7916 6.86634 18.3749 5.62467 17.5416C4.46634 16.7749 3.83301 15.7249 3.83301 14.5833C3.83301 13.4416 4.46634 12.3833 5.62467 11.6083C8.12467 9.94992 12.1747 9.94992 14.658 11.6083C15.808 12.3749 16.4497 13.4249 16.4497 14.5666C16.4497 15.7083 15.8163 16.7666 14.658 17.5416C13.408 18.3749 11.7747 18.7916 10.1413 18.7916ZM6.31634 12.6583C5.51634 13.1916 5.08301 13.8749 5.08301 14.5916C5.08301 15.2999 5.52467 15.9833 6.31634 16.5083C8.39134 17.8999 11.8913 17.8999 13.9663 16.5083C14.7663 15.9749 15.1997 15.2916 15.1997 14.5749C15.1997 13.8666 14.758 13.1833 13.9663 12.6583C11.8913 11.2749 8.39134 11.2749 6.31634 12.6583Z" fill="#292D32"/>
</svg>
