<svg width="16" height="16" viewBox="0 0 16 16" fill="none" xmlns="http://www.w3.org/2000/svg">
<path d="M10.7933 1.33325H5.20665C2.77998 1.33325 1.33331 2.77992 1.33331 5.20659V10.7866C1.33331 13.2199 2.77998 14.6666 5.20665 14.6666H10.7866C13.2133 14.6666 14.66 13.2199 14.66 10.7933V5.20659C14.6666 2.77992 13.22 1.33325 10.7933 1.33325ZM11.1866 6.46659L7.40665 10.2466C7.31331 10.3399 7.18665 10.3933 7.05331 10.3933C6.91998 10.3933 6.79331 10.3399 6.69998 10.2466L4.81331 8.35992C4.61998 8.16659 4.61998 7.84659 4.81331 7.65325C5.00665 7.45992 5.32665 7.45992 5.51998 7.65325L7.05331 9.18659L10.48 5.75992C10.6733 5.56659 10.9933 5.56659 11.1866 5.75992C11.38 5.95325 11.38 6.26659 11.1866 6.46659Z" fill="#3366FF"/>
</svg>
