<svg width="24" height="24" viewBox="0 0 24 24" fill="none" xmlns="http://www.w3.org/2000/svg">
<path d="M12 11.53C9.24 11.53 7 13.77 7 16.53C7 17.27 7.16 17.97 7.46 18.59C7.54 18.77 7.63 18.94 7.73 19.1C8.59 20.55 10.18 21.53 12 21.53C13.82 21.53 15.41 20.55 16.27 19.1C16.37 18.94 16.46 18.77 16.54 18.59C16.84 17.97 17 17.27 17 16.53C17 13.77 14.76 11.53 12 11.53ZM14.07 16.1L11.94 18.07C11.8 18.2 11.61 18.27 11.43 18.27C11.24 18.27 11.05 18.2 10.9 18.05L9.91 17.06C9.62 16.77 9.62 16.29 9.91 16C10.2 15.71 10.68 15.71 10.97 16L11.45 16.48L13.05 15C13.36 14.72 13.83 14.74 14.11 15.04C14.39 15.34 14.37 15.81 14.07 16.1Z" fill="#3366FF"/>
<path d="M20.1999 17.07C19.8399 17.39 19.4499 17.66 19.0299 17.88C18.6699 18.06 18.3099 17.71 18.3699 17.31C18.41 17.02 18.4299 16.72 18.4299 16.41C18.4299 12.83 15.5099 9.91003 11.9299 9.91003C8.34995 9.91003 5.42995 12.83 5.42995 16.41C5.42995 16.87 5.47995 17.31 5.56995 17.74C5.63995 18.09 5.36995 18.44 5.01995 18.35C1.06995 17.39 1.04995 11.31 5.46995 11H5.51995C2.30995 2.07003 15.8499 -1.49997 17.3999 7.88003C21.7299 8.43003 23.4799 14.2 20.1999 17.07Z" fill="#3366FF"/>
</svg>
