<svg width="12" height="12" viewBox="0 0 12 12" fill="none" xmlns="http://www.w3.org/2000/svg">
<path d="M6 11.375C3.035 11.375 0.625 8.965 0.625 6C0.625 3.035 3.035 0.625 6 0.625C8.965 0.625 11.375 3.035 11.375 6C11.375 8.965 8.965 11.375 6 11.375ZM6 1.375C3.45 1.375 1.375 3.45 1.375 6C1.375 8.55 3.45 10.625 6 10.625C8.55 10.625 10.625 8.55 10.625 6C10.625 3.45 8.55 1.375 6 1.375Z" fill="#2E8E18"/>
<path d="M7.85507 7.96488C7.79007 7.96488 7.72507 7.94988 7.66507 7.90988L6.11507 6.98488C5.73007 6.75488 5.44507 6.24988 5.44507 5.80488V3.75488C5.44507 3.54988 5.61507 3.37988 5.82007 3.37988C6.02507 3.37988 6.19507 3.54988 6.19507 3.75488V5.80488C6.19507 5.98488 6.34507 6.24988 6.50007 6.33988L8.05007 7.26488C8.23007 7.36988 8.28507 7.59988 8.18007 7.77988C8.10507 7.89988 7.98007 7.96488 7.85507 7.96488Z" fill="#2E8E18"/>
</svg>
