<svg width="26" height="22" viewBox="0 0 26 22" fill="none" xmlns="http://www.w3.org/2000/svg">
<path d="M4.0006 7.7846C4.43445 5.52954 4.65138 4.40201 5.264 3.54069C5.80287 2.78305 6.54865 2.16707 7.39445 1.78104C8.356 1.34217 9.50421 1.34217 11.8006 1.34217H17.8145C20.1109 1.34217 21.2591 1.34217 22.0518 1.78104C22.749 2.16707 23.2578 2.78305 23.5052 3.54069C23.7864 4.40201 23.5694 5.52954 23.1356 7.7846L21.9994 13.6902C21.5656 15.9452 21.3487 17.0727 20.736 17.9341C20.1972 18.6917 19.4514 19.3077 18.6056 19.6937C17.644 20.1326 16.4958 20.1326 14.1994 20.1326H8.18556C5.88915 20.1326 4.74094 20.1326 3.94826 19.6937C3.251 19.3077 2.74223 18.6917 2.49487 17.9341C2.21367 17.0727 2.43059 15.9452 2.86444 13.6902L4.0006 7.7846Z" fill="#5865F2"/>
<path d="M19.0783 6.26794C18.1859 5.84784 17.204 5.54253 16.1496 5.36869C15.973 5.59155 15.7593 5.8913 15.6058 6.12976C14.4802 5.9693 13.3343 5.9693 12.1682 6.12976C12.1065 5.8913 12.0045 5.59155 11.9126 5.36869C10.79 5.54253 9.68927 5.84896 8.63502 6.27016C6.14551 9.00688 5.09994 11.6756 4.85986 14.3065C5.98924 15.2035 7.14617 15.7484 8.31803 16.1049C8.69912 15.7161 9.05181 15.3027 9.37097 14.867C8.95302 14.7099 8.56106 14.516 8.19876 14.2909C8.32051 14.2174 8.44055 14.1405 8.55747 14.0614C10.826 15.1288 13.5138 15.1288 16.1635 14.0614C16.2511 14.1405 16.3416 14.2174 16.4339 14.2909C15.9835 14.5171 15.5158 14.711 15.0374 14.8681C15.1891 15.3027 15.3813 15.7172 15.614 16.1061C16.9242 15.7495 18.292 15.2046 19.7667 14.3065C20.6657 11.2567 20.3289 8.61242 19.0783 6.26794ZM10.1271 12.6885C9.38447 12.6885 8.89852 12.0489 9.04837 11.27C9.19822 10.4911 9.91748 9.85042 10.6731 9.85042C11.4288 9.85042 11.9147 10.49 11.7516 11.27C11.603 12.0489 10.8827 12.6885 10.1271 12.6885ZM15.1221 12.6885C14.3795 12.6885 13.8935 12.0489 14.0433 11.27C14.1932 10.4911 14.9125 9.85042 15.6681 9.85042C16.4237 9.85042 16.9097 10.49 16.7466 11.27C16.5968 12.0489 15.8777 12.6885 15.1221 12.6885Z" fill="white"/>
</svg>
