<svg width="44" height="44" viewBox="0 0 44 44" fill="none" xmlns="http://www.w3.org/2000/svg">
<path d="M22 0C9.878 0 0 9.878 0 22C0 34.122 9.878 44 22 44C34.122 44 44 34.122 44 22C44 9.878 34.122 0 22 0ZM32.516 16.94L20.042 29.414C19.734 29.722 19.316 29.898 18.876 29.898C18.436 29.898 18.018 29.722 17.71 29.414L11.484 23.188C10.846 22.55 10.846 21.494 11.484 20.856C12.122 20.218 13.178 20.218 13.816 20.856L18.876 25.916L30.184 14.608C30.822 13.97 31.878 13.97 32.516 14.608C33.154 15.246 33.154 16.28 32.516 16.94Z" fill="#387FFB"/>
</svg>
