<svg width="49" height="54" viewBox="0 0 49 54" fill="none" xmlns="http://www.w3.org/2000/svg">
<path d="M29.5118 39.3322C29.0346 39.3322 28.5574 39.1564 28.1807 38.7796L18.2346 28.8336C17.5062 28.1052 17.5062 26.8996 18.2346 26.1713C18.963 25.4429 20.1686 25.4429 20.8969 26.1713L30.843 36.1173C31.5714 36.8457 31.5714 38.0513 30.843 38.7796C30.4662 39.1313 29.989 39.3322 29.5118 39.3322Z" fill="#3366FF"/>
<path d="M19.4647 39.4325C18.9875 39.4325 18.5103 39.2567 18.1336 38.88C17.4052 38.1516 17.4052 36.946 18.1336 36.2176L28.0796 26.2716C28.808 25.5432 30.0136 25.5432 30.7419 26.2716C31.4703 27 31.4703 28.2055 30.7419 28.9339L20.7959 38.88C20.4191 39.2567 19.9419 39.4325 19.4647 39.4325Z" fill="#091A7A"/>
<path d="M29.5116 13.814H19.4651C17.054 13.814 12.5581 13.814 12.5581 6.90698C12.5581 0 17.054 0 19.4651 0H29.5116C31.9228 0 36.4186 0 36.4186 6.90698C36.4186 9.31814 36.4186 13.814 29.5116 13.814ZM19.4651 3.76744C16.9786 3.76744 16.3256 3.76744 16.3256 6.90698C16.3256 10.0465 16.9786 10.0465 19.4651 10.0465H29.5116C32.6512 10.0465 32.6512 9.39349 32.6512 6.90698C32.6512 3.76744 31.9981 3.76744 29.5116 3.76744H19.4651Z" fill="#3366FF"/>
<path d="M32.0233 54.0001H16.9535C2.83814 54.0001 0 47.5201 0 37.0466V21.9768C0 10.5238 4.14419 5.62612 14.3414 5.09868C15.3963 5.04845 16.2753 5.82705 16.3256 6.88193C16.3758 7.93682 15.5721 8.79077 14.5423 8.841C7.4093 9.24286 3.76744 11.3777 3.76744 21.9768V37.0466C3.76744 46.3396 5.60093 50.2326 16.9535 50.2326H32.0233C43.3758 50.2326 45.2093 46.3396 45.2093 37.0466V21.9768C45.2093 11.3777 41.5674 9.24286 34.4344 8.841C33.4047 8.79077 32.6009 7.88659 32.6512 6.85682C32.7014 5.82705 33.6056 5.02333 34.6354 5.07356C44.8326 5.62612 48.9767 10.5238 48.9767 21.9517V37.0215C48.9767 47.5201 46.1386 54.0001 32.0233 54.0001Z" fill="#292D32"/>
</svg>
