<svg width="20" height="20" viewBox="0 0 20 20" fill="none" xmlns="http://www.w3.org/2000/svg">
<path d="M9.99984 13.5417C7.8165 13.5417 6.0415 11.7667 6.0415 9.58341V5.00008C6.0415 2.81675 7.8165 1.04175 9.99984 1.04175C12.1832 1.04175 13.9582 2.81675 13.9582 5.00008V9.58341C13.9582 11.7667 12.1832 13.5417 9.99984 13.5417ZM9.99984 2.29175C8.50817 2.29175 7.2915 3.50841 7.2915 5.00008V9.58341C7.2915 11.0751 8.50817 12.2917 9.99984 12.2917C11.4915 12.2917 12.7082 11.0751 12.7082 9.58341V5.00008C12.7082 3.50841 11.4915 2.29175 9.99984 2.29175Z" fill="#292D32"/>
<path d="M10 16.4584C6.14167 16.4584 3 13.3167 3 9.45842V8.04175C3 7.70008 3.28333 7.41675 3.625 7.41675C3.96667 7.41675 4.25 7.70008 4.25 8.04175V9.45842C4.25 12.6251 6.83333 15.2084 10 15.2084C13.1667 15.2084 15.75 12.6251 15.75 9.45842V8.04175C15.75 7.70008 16.0333 7.41675 16.375 7.41675C16.7167 7.41675 17 7.70008 17 8.04175V9.45842C17 13.3167 13.8583 16.4584 10 16.4584Z" fill="#292D32"/>
<path d="M11.1584 5.98343C11.0917 5.98343 11.0167 5.9751 10.9417 5.9501C10.3334 5.7251 9.66673 5.7251 9.05839 5.9501C8.73339 6.06676 8.37506 5.9001 8.25839 5.5751C8.14173 5.2501 8.30839 4.89176 8.63339 4.7751C9.51673 4.45843 10.4917 4.45843 11.3751 4.7751C11.7001 4.89176 11.8667 5.2501 11.7501 5.5751C11.6501 5.8251 11.4084 5.98343 11.1584 5.98343Z" fill="#292D32"/>
<path d="M10.6666 7.7501C10.6082 7.7501 10.5582 7.74176 10.4999 7.7251C10.1666 7.63343 9.8249 7.63343 9.49157 7.7251C9.15823 7.81676 8.81657 7.61676 8.7249 7.28343C8.63323 6.95843 8.83323 6.61676 9.16657 6.5251C9.70823 6.3751 10.2916 6.3751 10.8332 6.5251C11.1666 6.61676 11.3666 6.95843 11.2749 7.29176C11.1999 7.56676 10.9416 7.7501 10.6666 7.7501Z" fill="#292D32"/>
<path d="M10 18.9583C9.65833 18.9583 9.375 18.6749 9.375 18.3333V15.8333C9.375 15.4916 9.65833 15.2083 10 15.2083C10.3417 15.2083 10.625 15.4916 10.625 15.8333V18.3333C10.625 18.6749 10.3417 18.9583 10 18.9583Z" fill="#292D32"/>
</svg>
