<svg width="16" height="16" viewBox="0 0 16 16" fill="none" xmlns="http://www.w3.org/2000/svg">
<g clip-path="url(#clip0_0_20)">
<path d="M3.51067 6.51C3.82259 5.5663 4.42457 4.74521 5.23074 4.16387C6.03691 3.58252 7.00609 3.27062 8 3.27267C9.12667 3.27267 10.1453 3.67267 10.9453 4.32733L13.2733 2C11.8547 0.763333 10.0367 0 8 0C4.84667 0 2.132 1.79867 0.826668 4.43333L3.51067 6.51Z" fill="#EA4335"/>
<path d="M10.6933 12.0086C9.96667 12.4773 9.044 12.7273 8 12.7273C7.01005 12.7293 6.04454 12.4199 5.24016 11.8429C4.43578 11.2658 3.8333 10.4504 3.518 9.51196L0.824669 11.5566C1.4855 12.8942 2.50818 14.0196 3.77655 14.805C5.04492 15.5904 6.50814 16.0044 8 16C9.95534 16 11.8233 15.3046 13.2227 14L10.694 12.0086H10.6933Z" fill="#34A853"/>
<path d="M13.2227 14C14.686 12.6346 15.636 10.6026 15.636 7.99995C15.636 7.52662 15.5633 7.01795 15.4547 6.54529H8V9.63662H12.2907C12.0793 10.676 11.5107 11.4806 10.694 12.0086L13.2227 14Z" fill="#4A90E2"/>
<path d="M3.518 9.51202C3.3549 9.02462 3.27205 8.51397 3.27267 8.00002C3.27267 7.47868 3.356 6.97802 3.51067 6.51002L0.826668 4.43335C0.277587 5.54181 -0.00546292 6.76303 1.34241e-06 8.00002C1.34241e-06 9.28002 0.296668 10.4867 0.824668 11.5567L3.518 9.51202Z" fill="#FBBC05"/>
</g>
<defs>
<clipPath id="clip0_0_20">
<rect width="16" height="16" fill="white"/>
</clipPath>
</defs>
</svg>
