<svg width="24" height="24" viewBox="0 0 24 24" fill="none" xmlns="http://www.w3.org/2000/svg">
<path d="M15.26 22.2498H8.73998C3.82998 22.2498 1.72998 20.1498 1.72998 15.2398V15.1098C1.72998 10.6698 3.47998 8.52978 7.39998 8.15978C7.79998 8.12978 8.17998 8.42978 8.21998 8.83978C8.25998 9.24978 7.95998 9.61978 7.53998 9.65978C4.39998 9.94978 3.22998 11.4298 3.22998 15.1198V15.2498C3.22998 19.3198 4.66998 20.7598 8.73998 20.7598H15.26C19.33 20.7598 20.77 19.3198 20.77 15.2498V15.1198C20.77 11.4098 19.58 9.92978 16.38 9.65978C15.97 9.61978 15.66 9.25978 15.7 8.84978C15.74 8.43978 16.09 8.12978 16.51 8.16978C20.49 8.50978 22.27 10.6598 22.27 15.1298V15.2598C22.27 20.1498 20.17 22.2498 15.26 22.2498Z" fill="#374151"/>
<path d="M12 15.63C11.59 15.63 11.25 15.29 11.25 14.88V2C11.25 1.59 11.59 1.25 12 1.25C12.41 1.25 12.75 1.59 12.75 2V14.88C12.75 15.3 12.41 15.63 12 15.63Z" fill="#374151"/>
<path d="M11.9998 16.7498C11.8098 16.7498 11.6198 16.6798 11.4698 16.5298L8.11984 13.1798C7.82984 12.8898 7.82984 12.4098 8.11984 12.1198C8.40984 11.8298 8.88984 11.8298 9.17984 12.1198L11.9998 14.9398L14.8198 12.1198C15.1098 11.8298 15.5898 11.8298 15.8798 12.1198C16.1698 12.4098 16.1698 12.8898 15.8798 13.1798L12.5298 16.5298C12.3798 16.6798 12.1898 16.7498 11.9998 16.7498Z" fill="#374151"/>
</svg>
