<svg width="20" height="20" viewBox="0 0 20 20" fill="none" xmlns="http://www.w3.org/2000/svg">
<path d="M9.99984 18.9583C5.05817 18.9583 1.0415 14.9417 1.0415 10C1.0415 5.05834 5.05817 1.04167 9.99984 1.04167C14.9415 1.04167 18.9582 5.05834 18.9582 10C18.9582 14.9417 14.9415 18.9583 9.99984 18.9583ZM9.99984 2.29167C5.74984 2.29167 2.2915 5.75001 2.2915 10C2.2915 14.25 5.74984 17.7083 9.99984 17.7083C14.2498 17.7083 17.7082 14.25 17.7082 10C17.7082 5.75001 14.2498 2.29167 9.99984 2.29167Z" fill="#3366FF"/>
<path d="M7.5002 18.125H6.66686C6.3252 18.125 6.04186 17.8417 6.04186 17.5C6.04186 17.1583 6.30853 16.8833 6.6502 16.875C5.34186 12.4083 5.34186 7.59167 6.6502 3.125C6.30853 3.11667 6.04186 2.84167 6.04186 2.5C6.04186 2.15833 6.3252 1.875 6.66686 1.875H7.5002C7.7002 1.875 7.89186 1.975 8.00853 2.13333C8.1252 2.3 8.15853 2.50833 8.09186 2.7C6.5252 7.40833 6.5252 12.5917 8.09186 17.3083C8.15853 17.5 8.1252 17.7083 8.00853 17.875C7.89186 18.025 7.7002 18.125 7.5002 18.125Z" fill="#3366FF"/>
<path d="M12.5 18.125C12.4333 18.125 12.3667 18.1167 12.3 18.0917C11.975 17.9833 11.7917 17.625 11.9083 17.3C13.475 12.5917 13.475 7.40834 11.9083 2.69167C11.8 2.36667 11.975 2.00834 12.3 1.9C12.6333 1.79167 12.9833 1.96667 13.0917 2.29167C14.75 7.25834 14.75 12.725 13.0917 17.6833C13.0083 17.9583 12.7583 18.125 12.5 18.125Z" fill="#3366FF"/>
<path d="M10 14.3333C7.675 14.3333 5.35833 14.0083 3.125 13.35C3.11667 13.6833 2.84167 13.9583 2.5 13.9583C2.15833 13.9583 1.875 13.675 1.875 13.3333V12.5C1.875 12.3 1.975 12.1083 2.13333 11.9917C2.3 11.875 2.50833 11.8417 2.7 11.9083C7.40833 13.475 12.6 13.475 17.3083 11.9083C17.5 11.8417 17.7083 11.875 17.875 11.9917C18.0417 12.1083 18.1333 12.3 18.1333 12.5V13.3333C18.1333 13.675 17.85 13.9583 17.5083 13.9583C17.1667 13.9583 16.8917 13.6917 16.8833 13.35C14.6417 14.0083 12.325 14.3333 10 14.3333Z" fill="#3366FF"/>
<path d="M17.5001 8.125C17.4335 8.125 17.3668 8.11666 17.3001 8.09166C12.5918 6.525 7.40015 6.525 2.69181 8.09166C2.35848 8.2 2.00848 8.025 1.90015 7.7C1.80015 7.36666 1.97515 7.01666 2.30015 6.90833C7.26681 5.25 12.7335 5.25 17.6918 6.90833C18.0168 7.01666 18.2001 7.375 18.0835 7.7C18.0085 7.95833 17.7585 8.125 17.5001 8.125Z" fill="#3366FF"/>
</svg>
