<svg width="20" height="16" viewBox="0 0 20 16" fill="none" xmlns="http://www.w3.org/2000/svg">
<path d="M11.46 7.59999H8.06557C7.78723 7.59999 7.60001 7.37332 7.6526 7.09999C7.70518 6.82666 7.97962 6.59999 8.25796 6.59999H11.6524C11.9308 6.59999 12.118 6.82666 12.0654 7.09999C12.0128 7.37332 11.7384 7.59999 11.46 7.59999Z" fill="#111827"/>
<path d="M3.50727 15.1667C3.22214 15.1667 2.97019 15.1 2.75823 14.9667C2.2932 14.6667 2.11121 14.06 2.25614 13.3067L4.06459 3.90667C4.39037 2.21334 6.06117 0.833338 7.78556 0.833338H14.3369C16.0612 0.833338 17.2011 2.21334 16.8753 3.90667L15.0681 13.3C14.9232 14.0533 14.5078 14.66 13.9273 14.96C13.3468 15.26 12.6676 15.2267 12.066 14.86L9.10059 13.0533C8.92423 12.9467 8.53726 12.9467 8.31986 13.0533L4.65929 14.86C4.25421 15.06 3.86029 15.1667 3.50727 15.1667ZM7.59996 1.83334C6.43905 1.83334 5.30904 2.76667 5.08972 3.90667L3.28255 13.3C3.20688 13.6933 3.26585 13.9867 3.44772 14.1C3.6283 14.22 3.95507 14.18 4.3385 13.9867L7.99908 12.18C8.55404 11.9067 9.3144 11.9067 9.7642 12.18L12.7296 13.9867C13.0386 14.18 13.35 14.22 13.5768 14.1C13.8035 13.98 13.9754 13.6867 14.0498 13.3L15.8569 3.90667C16.0763 2.76667 15.3054 1.83334 14.1445 1.83334H7.59996Z" fill="#111827"/>
</svg>
