<svg width="32" height="32" viewBox="0 0 32 32" fill="none" xmlns="http://www.w3.org/2000/svg">
<path d="M15.4167 30H16.5833C22.93 30 26.0917 30 28.0517 28.04C30 26.08 30 22.9067 30 16.5833V15.3933C30 9.09333 30 5.92 28.0517 3.96C26.0917 2 22.9183 2 16.5833 2H15.4167C9.07 2 5.90833 2 3.94833 3.96C2 5.92 2 9.09333 2 15.4167V16.6067C2 22.9067 2 26.08 3.96 28.04C5.92 30 9.09333 30 15.4167 30Z" fill="#0077FF"/>
<path d="M16.8039 22C10.654 22 7.14616 17.8709 7 11H10.0806C10.1818 16.043 12.4528 18.1792 14.2517 18.6196V11H17.1524V15.3493C18.9288 15.1622 20.7951 13.1802 21.4247 11H24.3254C24.0882 12.1307 23.6152 13.2013 22.9362 14.1448C22.2572 15.0883 21.3867 15.8845 20.3791 16.4835C21.5038 17.0308 22.4972 17.8055 23.2937 18.7564C24.0902 19.7073 24.6718 20.8128 25 22H21.807C21.5124 20.9688 20.9135 20.0458 20.0855 19.3465C19.2575 18.6472 18.2372 18.2029 17.1524 18.0691V22H16.8039Z" fill="white"/>
</svg>
