<svg width="30" height="12" viewBox="0 0 30 12" fill="none" xmlns="http://www.w3.org/2000/svg">
<g clip-path="url(#clip0_288_9413)">
<path d="M7.12104 0C5.94946 0 4.82588 0.48402 3.99746 1.34558L1.29383 4.15736C0.465404 5.01892 0 6.18744 0 7.40588C0 9.94316 1.97775 12 4.41742 12C5.589 12 6.71258 11.516 7.541 10.6544L9.41112 8.70948C9.41112 8.70944 9.41115 8.70952 9.41112 8.70948L14.86 3.04264C15.2557 2.63116 15.7923 2.4 16.3518 2.4C17.2886 2.4 18.0828 3.03496 18.3581 3.91363L20.0778 2.12518C19.2933 0.847336 17.9177 0 16.3518 0C15.1802 0 14.0567 0.48402 13.2282 1.34558L5.90923 8.95736C5.51358 9.36884 4.97696 9.6 4.41742 9.6C3.25225 9.6 2.30769 8.61768 2.30769 7.40588C2.30769 6.82396 2.52997 6.26588 2.92562 5.8544L5.62923 3.04264C6.02488 2.63116 6.5615 2.4 7.12104 2.4C8.05785 2.4 8.852 3.03499 9.12735 3.91368L10.847 2.12523C10.0625 0.84736 8.68696 0 7.12104 0Z" fill="white"/>
<path d="M15.14 8.95736C14.7443 9.36884 14.2077 9.6 13.6482 9.6C12.7115 9.6 11.9174 8.9652 11.642 8.08668L9.92236 9.87508C10.7069 11.1528 12.0824 12 13.6482 12C14.8197 12 15.9433 11.516 16.7717 10.6544L24.0907 3.04264C24.4864 2.63116 25.023 2.4 25.5826 2.4C26.7477 2.4 27.6923 3.38234 27.6923 4.59412C27.6923 5.17604 27.47 5.73412 27.0744 6.1456L24.3707 8.95736C23.9751 9.36884 23.4385 9.6 22.8789 9.6C21.9422 9.6 21.1481 8.96508 20.8727 8.08648L19.1531 9.87492C19.9376 11.1527 21.3131 12 22.8789 12C24.0505 12 25.1741 11.516 26.0025 10.6544L28.7061 7.84264C29.5346 6.98108 30 5.81256 30 4.59412C30 2.05686 28.0222 0 25.5826 0C24.411 0 23.2874 0.48402 22.459 1.34558L15.14 8.95736Z" fill="white"/>
</g>
<defs>
<clipPath id="clip0_288_9413">
<rect width="30" height="12" fill="white"/>
</clipPath>
</defs>
</svg>
