<svg width="36" height="36" viewBox="0 0 36 36" fill="none" xmlns="http://www.w3.org/2000/svg">
<circle cx="18" cy="18" r="12.8598" transform="rotate(-15 18 18)" fill="#105DFB"/>
<path fill-rule="evenodd" clip-rule="evenodd" d="M11.3214 25.4568L8.4172 14.618L13.4278 13.2754C15.0372 12.8442 16.6915 13.7992 17.1227 15.4087C17.3968 16.4314 17.252 17.1491 16.2731 18.108C17.8214 18.367 18.4381 19.1357 18.7637 20.3511C19.2043 21.9952 18.081 23.6456 16.4368 24.0861L11.3214 25.4568ZM11.0182 15.844L11.7166 18.4504L14.1981 17.7854C14.1981 17.7854 15.4042 17.4622 15.0551 16.1591C14.7059 14.8559 13.4998 15.1791 13.4998 15.1791L11.0182 15.844ZM12.9499 23.053L12.1958 20.2387L14.8575 19.5255C15.2873 19.4104 16.2479 19.3907 16.6045 20.7216C16.869 21.7087 16.0528 22.2117 15.6116 22.3398L12.9499 23.053Z" fill="white"/>
<path fill-rule="evenodd" clip-rule="evenodd" d="M21.9709 14.1871C20.4459 14.5957 18.4797 16.2964 19.2598 19.2078C19.7348 20.9805 21.3149 22.9959 24.2262 22.2158C26.5553 21.5917 27.1692 19.5946 27.1851 18.6741L24.9947 19.261C24.9878 19.6789 24.6731 20.2238 23.7582 20.469C22.4273 20.8256 21.6513 19.8151 21.4297 19.2653L26.9473 17.7868L26.7876 17.1907C26.0075 14.2794 23.4959 13.7785 21.9709 14.1871ZM22.4167 15.8507C21.1745 16.1836 20.991 17.3323 21.0545 17.865L24.3817 16.9735C24.2443 16.4606 23.6589 15.5179 22.4167 15.8507Z" fill="white"/>
<path d="M18.6878 12.526L19.0481 13.8707L24.2746 12.4703L23.9143 11.1255L18.6878 12.526Z" fill="white"/>
</svg>
