<svg width="26" height="31" viewBox="0 0 26 31" fill="none" xmlns="http://www.w3.org/2000/svg">
<path d="M17.1045 28.805C14.2971 30.4259 11.2086 31.1203 8.19246 30.9831C10.1325 30.0244 13.2656 27.829 14.188 24.6857C11.018 26.327 8.2578 24.7625 7.49176 23.8552C7.8126 23.805 9.13415 23.2039 9.67697 22.5126C5.61028 23.6729 3.26541 20.8701 2.8372 19.8487C3.77209 19.9297 4.99591 19.4391 5.41659 19.1422C0.738921 18.6849 -0.127234 14.4345 0.0139787 13.3272C4.28963 15.2468 8.91699 15.0398 13.3808 12.5997C13.0874 12.2834 12.8247 11.9296 12.5998 11.5401C10.9861 8.74503 11.9371 5.17484 14.7239 3.56585C16.18 2.72517 17.8492 2.58621 19.3415 3.04386C20.1828 2.25408 21.3391 0.874869 21.7885 -1.96458e-05C22.1756 1.5039 21.6762 3.23329 21.228 4.0262C21.2145 4.01571 21.2415 4.03657 21.228 4.0262C21.7727 3.59128 23.2086 2.34841 23.5967 1.54715C23.7014 2.45717 23.2091 4.35499 22.6228 5.59682C27.4352 13.512 25.3383 24.0512 17.1045 28.805Z" fill="white"/>
</svg>
