<svg width="54" height="54" viewBox="0 0 54 54" fill="none" xmlns="http://www.w3.org/2000/svg">
<path d="M24.4429 48.8858C10.9554 48.8858 0 37.9304 0 24.4429C0 10.9554 10.9554 0 24.4429 0C37.9304 0 48.8858 10.9554 48.8858 24.4429C48.8858 37.9304 37.9304 48.8858 24.4429 48.8858ZM24.4429 3.76045C13.0362 3.76045 3.76045 13.0362 3.76045 24.4429C3.76045 35.8496 13.0362 45.1253 24.4429 45.1253C35.8496 45.1253 45.1253 35.8496 45.1253 24.4429C45.1253 13.0362 35.8496 3.76045 24.4429 3.76045Z" fill="#3366FF"/>
<path d="M30.7103 26.3231H18.1755C17.1476 26.3231 16.2953 25.4707 16.2953 24.4429C16.2953 23.415 17.1476 22.5627 18.1755 22.5627H30.7103C31.7382 22.5627 32.5905 23.415 32.5905 24.4429C32.5905 25.4707 31.7382 26.3231 30.7103 26.3231Z" fill="#091A7A"/>
<path d="M47.4069 54C47.2063 54 47.0058 53.9749 46.8303 53.9499C45.652 53.7994 43.5211 52.9972 42.3178 49.4123C41.691 47.532 41.9167 45.6518 42.9445 44.2228C43.9724 42.7939 45.7022 41.9916 47.6827 41.9916C50.2398 41.9916 52.2453 42.9694 53.1478 44.6992C54.0504 46.429 53.7997 48.6351 52.3707 50.766C50.5907 53.4485 48.6604 54 47.4069 54ZM45.9027 48.234C46.3289 49.5376 46.9306 50.1894 47.3317 50.2395C47.7328 50.2897 48.4849 49.8134 49.2621 48.6852C49.9891 47.6072 50.0392 46.8301 49.8637 46.4791C49.6882 46.1281 48.9863 45.7521 47.6827 45.7521C46.9055 45.7521 46.3289 46.0028 46.003 46.429C45.7022 46.8551 45.652 47.507 45.9027 48.234Z" fill="#3366FF"/>
</svg>
