<svg width="20" height="20" viewBox="0 0 20 20" fill="none" xmlns="http://www.w3.org/2000/svg">
<path d="M14.1667 17.2084H5.83333C4.40741 17.2084 3.35071 16.7999 2.65043 16.0997C1.95015 15.3994 1.54166 14.3427 1.54166 12.9167V7.08342C1.54166 5.65749 1.95015 4.60079 2.65043 3.90051C3.35071 3.20023 4.40741 2.79175 5.83333 2.79175H14.1667C15.5926 2.79175 16.6493 3.20023 17.3496 3.90051C18.0499 4.60079 18.4583 5.65749 18.4583 7.08342V12.9167C18.4583 14.3427 18.0499 15.3994 17.3496 16.0997C16.6493 16.7999 15.5926 17.2084 14.1667 17.2084ZM5.83333 3.04175C4.56818 3.04175 3.53131 3.34917 2.81519 4.06528C2.09908 4.78139 1.79166 5.81826 1.79166 7.08342V12.9167C1.79166 14.1819 2.09908 15.2188 2.81519 15.9349C3.53131 16.651 4.56818 16.9584 5.83333 16.9584H14.1667C15.4318 16.9584 16.4687 16.651 17.1848 15.9349C17.9009 15.2188 18.2083 14.1819 18.2083 12.9167V7.08342C18.2083 5.81826 17.9009 4.78139 17.1848 4.06528C16.4687 3.34917 15.4318 3.04175 14.1667 3.04175H5.83333Z" fill="#292D32" stroke="#9CA3AF"/>
<path d="M8.36579 9.67913L8.36581 9.67911L8.36186 9.67596L5.75572 7.59438C5.69356 7.54298 5.69593 7.46498 5.72954 7.4236C5.78093 7.36036 5.85958 7.36256 5.90119 7.39637L5.90118 7.39638L5.90445 7.39899L8.51184 9.48158C8.512 9.48171 8.51216 9.48184 8.51232 9.48196C8.93359 9.81987 9.47718 9.97289 9.99565 9.97289C10.5141 9.97289 11.0577 9.81987 11.479 9.48196C11.4791 9.48184 11.4793 9.48171 11.4795 9.48158L14.0869 7.39899L14.0869 7.399L14.0901 7.39637C14.1443 7.35231 14.2191 7.36783 14.2513 7.41024L14.2564 7.41701L14.2618 7.4236C14.3058 7.47783 14.2903 7.55264 14.2479 7.58476L14.2478 7.58463L14.2378 7.59263L11.6294 9.67596L11.6294 9.6759L11.6226 9.68155C11.1931 10.0372 10.6032 10.225 9.99982 10.225C9.39736 10.225 8.80549 10.0377 8.36579 9.67913Z" fill="#292D32" stroke="#9CA3AF"/>
</svg>
