<svg width="50" height="54" viewBox="0 0 50 54" fill="none" xmlns="http://www.w3.org/2000/svg">
<path d="M24.7087 54C23.0263 54 21.3188 53.5731 19.8122 52.6942L4.89654 44.0813C1.88328 42.3236 0 39.0843 0 35.594V18.4185C0 14.9282 1.88328 11.6889 4.89654 9.93117L19.8122 1.3183C22.8254 -0.439433 26.5669 -0.439433 29.6052 1.3183L44.5208 9.93117C47.5341 11.6889 49.4174 14.9282 49.4174 18.4185V35.594C49.4174 39.0843 47.5341 42.3236 44.5208 44.0813L29.6052 52.6942C28.0986 53.5731 26.3911 54 24.7087 54ZM24.7087 3.77908C23.6792 3.77908 22.6245 4.05531 21.6954 4.58263L6.77982 13.1955C4.92165 14.2752 3.76657 16.259 3.76657 18.4185V35.594C3.76657 37.7284 4.92165 39.7373 6.77982 40.817L21.6954 49.4299C23.5536 50.5096 25.8638 50.5096 27.722 49.4299L42.6376 40.817C44.4957 39.7373 45.6508 37.7535 45.6508 35.594V18.4185C45.6508 16.2841 44.4957 14.2752 42.6376 13.1955L27.722 4.58263C26.7929 4.05531 25.7382 3.77908 24.7087 3.77908Z" fill="#3366FF"/>
<path d="M24.7081 26.3787C20.4393 26.3787 16.9741 22.9134 16.9741 18.6446C16.9741 14.3759 20.4393 10.9107 24.7081 10.9107C28.9769 10.9107 32.4421 14.3759 32.4421 18.6446C32.4421 22.9134 28.9769 26.3787 24.7081 26.3787ZM24.7081 14.6773C22.5235 14.6773 20.7407 16.46 20.7407 18.6446C20.7407 20.8293 22.5235 22.6121 24.7081 22.6121C26.8927 22.6121 28.6756 20.8293 28.6756 18.6446C28.6756 16.46 26.8927 14.6773 24.7081 14.6773Z" fill="#091A7A"/>
<path d="M34.7525 40.5913C33.723 40.5913 32.8692 39.7376 32.8692 38.708C32.8692 35.2428 29.2031 32.4054 24.7083 32.4054C20.2135 32.4054 16.5474 35.2428 16.5474 38.708C16.5474 39.7376 15.6936 40.5913 14.6641 40.5913C13.6346 40.5913 12.7808 39.7376 12.7808 38.708C12.7808 33.1586 18.1294 28.6389 24.7083 28.6389C31.2872 28.6389 36.6358 33.1586 36.6358 38.708C36.6358 39.7376 35.782 40.5913 34.7525 40.5913Z" fill="#091A7A"/>
</svg>
