<svg width="28" height="28" viewBox="0 0 28 28" fill="none" xmlns="http://www.w3.org/2000/svg">
<path d="M14.0002 2.3335C7.57183 2.3335 2.3335 7.57183 2.3335 14.0002C2.3335 20.4285 7.57183 25.6668 14.0002 25.6668C20.4285 25.6668 25.6668 20.4285 25.6668 14.0002C25.6668 7.57183 20.4285 2.3335 14.0002 2.3335ZM19.5768 11.3168L12.9618 17.9318C12.7985 18.0952 12.5768 18.1885 12.3435 18.1885C12.1102 18.1885 11.8885 18.0952 11.7252 17.9318L8.4235 14.6302C8.08516 14.2918 8.08516 13.7318 8.4235 13.3935C8.76183 13.0552 9.32183 13.0552 9.66016 13.3935L12.3435 16.0768L18.3402 10.0802C18.6785 9.74183 19.2385 9.74183 19.5768 10.0802C19.9152 10.4185 19.9152 10.9668 19.5768 11.3168Z" fill="#9CA3AF"/>
</svg>
