<svg width="16" height="16" viewBox="0 0 16 16" fill="none" xmlns="http://www.w3.org/2000/svg">
<path d="M13.3333 3.83333H9.33325C9.05992 3.83333 8.83325 3.60666 8.83325 3.33333C8.83325 3.05999 9.05992 2.83333 9.33325 2.83333H13.3333C13.6066 2.83333 13.8333 3.05999 13.8333 3.33333C13.8333 3.60666 13.6066 3.83333 13.3333 3.83333Z" fill="#111827"/>
<path d="M11.3333 5.83333H9.33325C9.05992 5.83333 8.83325 5.60666 8.83325 5.33333C8.83325 5.05999 9.05992 4.83333 9.33325 4.83333H11.3333C11.6066 4.83333 11.8333 5.05999 11.8333 5.33333C11.8333 5.60666 11.6066 5.83333 11.3333 5.83333Z" fill="#111827"/>
<path d="M7.66659 14.5C3.89992 14.5 0.833252 11.4333 0.833252 7.66666C0.833252 3.89999 3.89992 0.833328 7.66659 0.833328C7.93992 0.833328 8.16659 1.05999 8.16659 1.33333C8.16659 1.60666 7.93992 1.83333 7.66659 1.83333C4.44659 1.83333 1.83325 4.45333 1.83325 7.66666C1.83325 10.88 4.44659 13.5 7.66659 13.5C10.8866 13.5 13.4999 10.88 13.4999 7.66666C13.4999 7.39333 13.7266 7.16666 13.9999 7.16666C14.2733 7.16666 14.4999 7.39333 14.4999 7.66666C14.4999 11.4333 11.4333 14.5 7.66659 14.5Z" fill="#111827"/>
<path d="M14.6666 15.1667C14.54 15.1667 14.4133 15.12 14.3133 15.02L12.98 13.6867C12.7866 13.4933 12.7866 13.1733 12.98 12.98C13.1733 12.7867 13.4933 12.7867 13.6866 12.98L15.02 14.3133C15.2133 14.5067 15.2133 14.8267 15.02 15.02C14.92 15.12 14.7933 15.1667 14.6666 15.1667Z" fill="#111827"/>
</svg>
