<svg width="26" height="22" viewBox="0 0 26 22" fill="none" xmlns="http://www.w3.org/2000/svg">
<g clip-path="url(#clip0_148_3963)">
<path d="M4.00057 7.78456C4.43442 5.5295 4.65134 4.40198 5.26396 3.54066C5.80283 2.78303 6.54861 2.16705 7.39441 1.78101C8.35596 1.34215 9.50416 1.34215 11.8006 1.34215H17.8144C20.1108 1.34215 21.259 1.34215 22.0517 1.78101C22.749 2.16705 23.2577 2.78303 23.5051 3.54066C23.7863 4.40198 23.5694 5.5295 23.1355 7.78456L21.9994 13.6901C21.5655 15.9452 21.3486 17.0727 20.736 17.934C20.1971 18.6916 19.4513 19.3076 18.6055 19.6936C17.644 20.1325 16.4958 20.1325 14.1994 20.1325H8.18552C5.88911 20.1325 4.74091 20.1325 3.94823 19.6936C3.25097 19.3076 2.7422 18.6916 2.49485 17.934C2.21364 17.0727 2.43057 15.9452 2.86441 13.6901L4.00057 7.78456Z" fill="#4087FC"/>
<path d="M8.48979 6.71088C8.01171 6.71088 7.54158 7.1401 7.43972 7.66957L6.54518 12.3192C6.28542 13.6694 7.06312 14.7639 8.2822 14.7639L13.4191 14.716C13.8972 14.716 14.3673 14.2867 14.4692 13.7573L15.373 9.05969C15.6327 7.70954 14.6521 6.7109 13.433 6.7109L8.48979 6.71088Z" fill="white"/>
<path d="M16.6428 8.54133C16.2757 8.84168 16.0149 9.27517 15.9272 9.73077L15.5529 11.6764C15.4653 12.132 15.5593 12.5655 15.8108 12.8659L17.4154 14.5307C17.7339 14.911 18.4069 14.6029 18.5178 14.026L19.7786 7.47267C19.8896 6.89579 19.3352 6.58776 18.8703 6.96805L16.6428 8.54133Z" fill="white"/>
</g>
<defs>
<clipPath id="clip0_148_3963">
<rect width="21.4868" height="21.4868" fill="white" transform="matrix(1.01776 0 -0.19228 0.999436 4.1315 0)"/>
</clipPath>
</defs>
</svg>
